<?xml version="1.0" encoding="iso-8859-1"?>
<!-- Generator: Adobe Illustrator 19.0.0, SVG Export Plug-In . SVG Version: 6.00 Build 0)  -->
<svg version="1.1" id="Layer_1" xmlns="http://www.w3.org/2000/svg" xmlns:xlink="http://www.w3.org/1999/xlink" x="0px" y="0px"
	 viewBox="0 0 511.999 511.999" style="enable-background:new 0 0 511.999 511.999;" xml:space="preserve">
<path style="fill:#507C5C;" d="M126.585,238.592H14.996c-4.324,0-8.436-1.866-11.282-5.117c-2.846-3.253-4.154-7.575-3.583-11.859
	c5.903-44.321,23.413-86.581,50.635-122.208c2.626-3.436,6.606-5.571,10.921-5.858c4.292-0.303,8.541,1.302,11.6,4.358
	l78.896,78.895c4.868,4.868,5.796,12.426,2.251,18.329c-6.005,9.992-10.478,20.79-13.301,32.094
	C139.469,233.905,133.469,238.592,126.585,238.592z M32.787,208.598h82.573c2.137-6.342,4.7-12.53,7.677-18.525L64.662,131.7
	C49.402,155.167,38.577,181.277,32.787,208.598z"/>
<path style="fill:#CFF09E;" d="M288.405,14.997v111.589c12.909,3.223,25.075,8.317,36.187,14.995l78.896-78.898
	C370.683,37.618,331.315,20.712,288.405,14.997z"/>
<path style="fill:#507C5C;" d="M324.586,156.578c-2.654,0-5.324-0.702-7.72-2.143c-9.986-6.002-20.782-10.475-32.093-13.299
	c-6.678-1.666-11.365-7.666-11.365-14.55V14.997c0-4.324,1.866-8.434,5.117-11.282c3.251-2.848,7.57-4.153,11.859-3.583
	c44.32,5.903,86.578,23.41,122.208,50.635c3.436,2.626,5.571,6.606,5.858,10.921c0.288,4.315-1.3,8.542-4.358,11.6l-78.896,78.898
	C332.304,155.077,328.464,156.578,324.586,156.578z M303.4,115.361c6.344,2.136,12.531,4.7,18.527,7.677L380.3,64.661
	c-23.467-15.261-49.579-26.085-76.899-31.874v82.573H303.4z"/>
<path style="fill:#CFF09E;" d="M370.419,324.591l78.896,78.895c25.067-32.805,41.973-72.17,47.688-115.083H385.414
	C382.191,301.313,377.095,313.479,370.419,324.591z"/>
<g>
	<path style="fill:#507C5C;" d="M449.313,418.483c-3.964,0-7.78-1.572-10.603-4.393l-78.896-78.895
		c-4.868-4.868-5.796-12.426-2.251-18.329c6.002-9.988,10.477-20.787,13.301-32.097c1.668-6.678,7.666-11.363,14.55-11.363h111.589
		c4.324,0,8.436,1.866,11.282,5.117c2.846,3.253,4.154,7.575,3.583,11.859c-5.904,44.32-23.413,86.578-50.636,122.208
		c-2.626,3.436-6.606,5.571-10.921,5.858C449.979,418.473,449.646,418.483,449.313,418.483z M388.962,321.926l58.375,58.373
		c15.261-23.467,26.085-49.579,31.876-76.899h-82.575C394.502,309.744,391.937,315.931,388.962,321.926z"/>
	<path style="fill:#507C5C;" d="M187.409,156.578c-3.839,0-7.675-1.465-10.604-4.393L97.909,73.287
		c-3.058-3.058-4.647-7.285-4.358-11.6c0.286-4.315,2.422-8.295,5.858-10.921c35.631-27.224,77.89-44.732,122.208-50.635
		c4.291-0.57,8.61,0.733,11.859,3.583c3.251,2.848,5.117,6.96,5.117,11.282v63.292c0,8.281-6.716,14.997-14.997,14.997
		S208.6,86.57,208.6,78.289V32.787c-27.321,5.789-53.432,16.613-76.899,31.874l66.314,66.315c5.856,5.856,5.856,15.352,0,21.21
		C195.084,155.114,191.245,156.578,187.409,156.578z"/>
</g>
<path style="fill:#CFF09E;" d="M324.592,370.419c-11.113,6.675-23.278,11.772-36.187,14.995v111.588
	c42.91-5.714,82.278-22.62,115.083-47.687L324.592,370.419z"/>
<path style="fill:#507C5C;" d="M288.403,511.999c-3.613,0-7.129-1.305-9.88-3.715c-3.251-2.848-5.117-6.96-5.117-11.282V385.414
	c0-6.883,4.685-12.882,11.363-14.55c11.308-2.824,22.105-7.297,32.097-13.301c5.9-3.545,13.457-2.617,18.327,2.251l78.896,78.895
	c3.056,3.058,4.646,7.285,4.358,11.6c-0.288,4.315-2.422,8.295-5.858,10.921c-35.629,27.224-77.888,44.734-122.208,50.636
	C289.723,511.955,289.061,511.999,288.403,511.999z M303.4,396.638v82.573c27.321-5.789,53.433-16.613,76.899-31.876l-58.375-58.373
	C315.931,391.939,309.743,394.504,303.4,396.638z"/>
<path style="fill:#CFF09E;" d="M370.419,187.41c6.677,11.113,11.772,23.276,14.994,36.186h111.589
	c-5.715-42.91-22.621-82.277-47.688-115.083L370.419,187.41z"/>
<g>
	<path style="fill:#507C5C;" d="M497.003,238.592H385.414c-6.883,0-12.884-4.686-14.55-11.365
		c-2.822-11.305-7.296-22.102-13.299-32.093c-3.547-5.903-2.618-13.46,2.25-18.329l78.896-78.896
		c3.058-3.056,7.291-4.664,11.6-4.358c4.315,0.286,8.295,2.422,10.921,5.858c27.222,35.628,44.732,77.885,50.636,122.207
		c0.571,4.285-0.735,8.607-3.583,11.859C505.439,236.726,501.326,238.592,497.003,238.592z M396.639,208.598h82.573
		c-5.79-27.321-16.615-53.433-31.876-76.897l-58.375,58.373C391.939,196.069,394.502,202.255,396.639,208.598z"/>
	<path style="fill:#507C5C;" d="M223.595,511.999c-0.657,0-1.32-0.043-1.98-0.132c-44.321-5.903-86.579-23.411-122.208-50.636
		c-3.436-2.626-5.571-6.606-5.858-10.921c-0.286-4.315,1.302-8.542,4.358-11.6l78.896-78.895c4.871-4.868,12.425-5.793,18.327-2.251
		c9.994,6.003,20.793,10.478,32.097,13.301c6.678,1.668,11.363,7.666,11.363,14.55v111.588c0,4.324-1.866,8.434-5.117,11.282
		C230.724,510.694,227.209,511.999,223.595,511.999z M131.699,447.336c23.465,15.262,49.579,26.087,76.899,31.876v-82.573
		c-6.342-2.136-12.528-4.7-18.525-7.677L131.699,447.336z"/>
	<path style="fill:#507C5C;" d="M62.687,418.485c-0.333,0-0.664-0.01-0.997-0.033c-4.315-0.286-8.295-2.422-10.921-5.858
		c-27.225-35.632-44.735-77.89-50.638-122.211c-0.571-4.285,0.735-8.607,3.583-11.859c2.846-3.251,6.96-5.117,11.282-5.117h63.292
		c8.281,0,14.997,6.716,14.997,14.997S86.57,303.4,78.289,303.4H32.787c5.79,27.321,16.615,53.433,31.877,76.9l66.313-66.314
		c5.858-5.855,15.351-5.855,21.21,0c5.856,5.856,5.856,15.352,0,21.21l-78.895,78.896C70.468,416.913,66.65,418.485,62.687,418.485z
		"/>
	<path style="fill:#507C5C;" d="M214.909,241.227c20.697,0,36.745,8.698,36.745,32.694v2.849c0,25.046-16.346,34.494-36.445,34.494
		c-24.146,0-37.043-13.797-37.043-27.895c0-8.098,4.348-10.348,11.697-10.348c10.199,0,11.699,3.899,11.699,8.698
		c0,6,5.7,9.15,13.049,9.15c8.547,0,13.647-4.349,13.647-14.097v-2.849c0-9.899-5.099-14.698-13.347-14.698h-22.797
		c-6.898,0-8.998-3.449-8.998-9.148c0-1.5,0.15-2.701,0.3-4.349l4.049-37.793c0.45-4.501,1.65-7.2,4.201-7.2h47.841
		c4.499,0,6.749,5.099,6.749,10.199c0,5.097-2.249,10.198-6.749,10.198h-32.844l-1.5,20.097h9.746V241.227z"/>
	<path style="fill:#507C5C;" d="M260.197,275.872v-39.744c0-25.796,16.046-35.395,36.743-35.395s36.895,9.598,36.895,35.395v39.744
		c0,25.794-16.198,35.394-36.895,35.394S260.197,301.667,260.197,275.872z M310.439,236.128c0-10.348-5.099-14.998-13.499-14.998
		c-8.4,0-13.349,4.65-13.349,14.998v39.744c0,10.348,4.95,14.997,13.349,14.997c8.398,0,13.499-4.649,13.499-14.997V236.128z"/>
</g>
<g>
</g>
<g>
</g>
<g>
</g>
<g>
</g>
<g>
</g>
<g>
</g>
<g>
</g>
<g>
</g>
<g>
</g>
<g>
</g>
<g>
</g>
<g>
</g>
<g>
</g>
<g>
</g>
<g>
</g>
</svg>
