<?xml version="1.0" encoding="iso-8859-1"?>
<!-- Generator: Adobe Illustrator 19.0.0, SVG Export Plug-In . SVG Version: 6.00 Build 0)  -->
<svg version="1.1" id="Layer_1" xmlns="http://www.w3.org/2000/svg" xmlns:xlink="http://www.w3.org/1999/xlink" x="0px" y="0px"
	 viewBox="0 0 512 512" style="enable-background:new 0 0 512 512;" xml:space="preserve">
<path style="fill:#CFF09E;" d="M430.849,81.041c-84.886-84.886-222.515-84.886-307.401,0s-84.886,222.515,0,307.401
	s222.515,84.886,307.401,0c55.332-55.332,74.596-133.073,57.794-204.01 M180.209,331.682c-53.539-53.539-53.539-140.341,0-193.88
	s140.341-53.539,193.88,0c26.769,26.769,40.153,61.855,40.153,96.939c0,35.086-13.384,70.171-40.155,96.941
	C320.55,385.221,233.748,385.221,180.209,331.682z"/>
<g>
	<path style="fill:#507C5C;" d="M277.148,469.483c-62.701,0-121.651-24.418-165.986-68.755
		c-91.525-91.523-91.527-240.446-0.002-331.973c91.527-91.525,240.45-91.527,331.977,0c6.785,6.785,6.785,17.787,0,24.572
		c-6.787,6.785-17.786,6.787-24.574,0c-77.976-77.977-204.853-77.977-282.828,0c-77.977,77.977-77.977,204.853,0,282.829
		c37.772,37.774,87.994,58.576,141.413,58.576s103.639-20.802,141.413-58.574c49.43-49.428,69.309-119.604,53.176-187.719
		c-2.212-9.338,3.565-18.701,12.903-20.913c9.322-2.205,18.701,3.564,20.911,12.903c18.932,79.93-4.399,162.286-62.416,220.301
		C398.799,445.065,339.849,469.483,277.148,469.483z M277.148,389.139c-39.557,0-79.112-15.058-109.225-45.171l0,0
		c-29.175-29.175-45.242-67.966-45.242-109.225s16.067-80.05,45.242-109.225s67.966-45.244,109.225-45.244
		s80.05,16.069,109.225,45.244s45.242,67.966,45.242,109.225s-16.067,80.05-45.242,109.225
		C356.26,374.081,316.705,389.139,277.148,389.139z M192.495,319.396c22.612,22.611,52.675,35.064,84.653,35.064
		s62.041-12.453,84.653-35.065s35.065-52.675,35.065-84.653s-12.453-62.042-35.065-84.653
		c-22.612-22.612-52.674-35.065-84.653-35.065s-62.041,12.453-84.653,35.065s-35.065,52.675-35.065,84.653
		C157.431,266.719,169.884,296.783,192.495,319.396L192.495,319.396z"/>
	<path style="fill:#507C5C;" d="M17.375,511.889c-4.448,0-8.893-1.696-12.286-5.089c-6.785-6.785-6.785-17.787,0-24.574
		l55.699-55.699c6.787-6.785,17.785-6.785,24.574,0c6.785,6.785,6.785,17.787,0,24.574L29.663,506.8
		C26.268,510.193,21.823,511.889,17.375,511.889z"/>
</g>
<g>
</g>
<g>
</g>
<g>
</g>
<g>
</g>
<g>
</g>
<g>
</g>
<g>
</g>
<g>
</g>
<g>
</g>
<g>
</g>
<g>
</g>
<g>
</g>
<g>
</g>
<g>
</g>
<g>
</g>
</svg>
