<?xml version="1.0" encoding="iso-8859-1"?>
<!-- Generator: Adobe Illustrator 19.0.0, SVG Export Plug-In . SVG Version: 6.00 Build 0)  -->
<svg version="1.1" id="Layer_1" xmlns="http://www.w3.org/2000/svg" xmlns:xlink="http://www.w3.org/1999/xlink" x="0px" y="0px"
	 viewBox="0 0 512 512" style="enable-background:new 0 0 512 512;" xml:space="preserve">
<path style="fill:#507C5C;" d="M423.748,512H186.495c-8.694,0-15.742-7.049-15.742-15.742v-68.501
	c0-8.693,7.048-15.742,15.742-15.742h125.923c8.694,0,15.742,7.049,15.742,15.742c0,8.693-7.048,15.742-15.742,15.742H202.237
	v37.017h205.769v-37.017h-25.894c-8.694,0-15.742-7.049-15.742-15.742c0-8.693,7.048-15.742,15.742-15.742h41.636
	c8.694,0,15.742,7.049,15.742,15.742v68.501C439.49,504.951,432.443,512,423.748,512z"/>
<path style="fill:#CFF09E;" d="M322.751,211.178V49.567c0-15.208-12.406-28.161-28.351-28.701
	c-16.74-0.567-30.497,12.2-30.497,28.029V211.71l-0.316-162.705c0-15.49-13.173-28.047-29.423-28.047h-1.132
	c-16.25,0-29.423,12.557-29.423,28.047v121.284v24.268v73.345l-28.63-69.71c-5.036-15.038-21.919-23.331-37.696-18.53
	c-15.777,4.809-24.477,20.894-19.44,35.937l62.862,129.454c7.764,15.989,24.562,26.226,43.045,26.234l169.199,0.074
	c26.217,0.011,47.476-20.243,47.478-45.233l0.017-111.154c0-15.49-13.173-28.047-29.423-28.047l0,0
	c-16.25,0-29.423,12.557-29.423,28.047v-6.667c0-15.49-13.173-28.047-29.423-28.047l0,0c-16.25,0-29.423,12.557-29.423,28.047"/>
<g>
	<path style="fill:#507C5C;" d="M392.971,387.102c-0.011,0-0.017,0-0.028,0l-169.199-0.074c-24.398-0.011-46.85-13.788-57.198-35.1
		l-62.864-129.454c-0.296-0.609-0.553-1.237-0.767-1.878c-3.729-11.142-2.81-23.046,2.588-33.519
		c5.595-10.854,15.251-18.835,27.189-22.473c22.039-6.709,45.645,3.753,55.172,23.564V49.003c0-24.145,20.261-43.788,45.165-43.788
		h1.132c11.265,0,21.581,4.02,29.5,10.657c8.59-7.241,19.816-11.13,31.27-10.739c24.427,0.828,43.56,20.346,43.56,44.435v117.005
		c4.318-1.335,8.915-2.054,13.681-2.054c13.206,0,25.107,5.524,33.373,14.313c7.257-4.822,16.033-7.646,25.475-7.646
		c24.904,0,45.165,19.644,45.165,43.789l-0.017,111.155c-0.002,16.433-6.676,31.843-18.793,43.388
		C425.475,380.856,409.703,387.102,392.971,387.102z M132.537,209.821l62.33,128.355c5.121,10.546,16.461,17.363,28.891,17.368
		l169.199,0.074c0.005,0,0.009,0,0.014,0c8.609,0,16.668-3.159,22.69-8.896c5.82-5.544,9.025-12.86,9.025-20.597l0.017-111.154
		c0-6.783-6.138-12.302-13.681-12.302c-7.544,0-13.681,5.521-13.681,12.305c0,8.693-7.048,15.742-15.742,15.742
		s-15.742-7.049-15.742-15.742v-6.665c0-6.786-6.138-12.305-13.681-12.305c-7.544,0-13.681,5.521-13.681,12.305v2.87
		c0,8.693-7.048,15.742-15.742,15.742c-8.694,0-15.742-7.049-15.742-15.742V49.567c0-6.906-5.895-12.723-13.143-12.968
		c-4.035-0.15-7.791,1.256-10.549,3.923c-2.368,2.287-3.671,5.263-3.671,8.373V211.71c0,8.688-7.038,15.732-15.726,15.742
		c-0.005,0-0.011,0-0.016,0c-8.682,0-15.725-7.029-15.742-15.71v-0.042l-0.318-162.663c0-6.815-6.138-12.335-13.681-12.335h-1.132
		c-7.544,0-13.681,5.521-13.681,12.304v218.898c0,7.518-5.318,13.988-12.694,15.444c-7.38,1.455-14.753-2.508-17.61-9.464
		l-28.63-69.71c-0.132-0.323-0.255-0.65-0.365-0.981c-2.306-6.89-10.637-10.766-18.185-8.471c-3.732,1.14-6.711,3.548-8.378,6.782
		C132.518,203.383,131.61,206.304,132.537,209.821z"/>
	<path style="fill:#507C5C;" d="M149.862,40.073H109.56l13.2-13.2c6.147-6.147,6.147-16.115,0-22.264
		c-6.147-6.146-16.115-6.146-22.264,0L60.423,44.682c-0.052,0.052-0.094,0.107-0.145,0.161c-0.31,0.32-0.612,0.645-0.894,0.99
		c-0.162,0.197-0.304,0.406-0.457,0.609c-0.154,0.208-0.316,0.411-0.461,0.628c-0.156,0.231-0.291,0.474-0.433,0.712
		c-0.121,0.203-0.249,0.401-0.36,0.611c-0.128,0.238-0.236,0.483-0.351,0.727c-0.105,0.224-0.216,0.442-0.312,0.671
		c-0.096,0.233-0.175,0.472-0.26,0.71c-0.088,0.247-0.184,0.491-0.26,0.745c-0.071,0.236-0.123,0.475-0.183,0.713
		c-0.066,0.261-0.139,0.518-0.19,0.782c-0.054,0.269-0.085,0.542-0.124,0.812c-0.035,0.238-0.079,0.471-0.102,0.712
		c-0.049,0.493-0.072,0.987-0.074,1.481c0,0.024-0.003,0.046-0.003,0.069s0.003,0.046,0.003,0.069
		c0.002,0.494,0.027,0.989,0.074,1.481c0.024,0.241,0.068,0.474,0.102,0.712c0.039,0.271,0.071,0.543,0.124,0.812
		c0.052,0.264,0.126,0.523,0.19,0.782c0.06,0.238,0.112,0.477,0.183,0.713c0.077,0.253,0.172,0.497,0.261,0.746
		c0.085,0.236,0.164,0.475,0.26,0.708c0.094,0.228,0.206,0.449,0.312,0.671c0.115,0.244,0.222,0.488,0.349,0.726
		c0.112,0.209,0.239,0.408,0.36,0.611c0.142,0.238,0.277,0.48,0.433,0.712c0.145,0.217,0.307,0.42,0.461,0.628
		c0.151,0.203,0.293,0.412,0.457,0.609c0.282,0.345,0.584,0.671,0.894,0.99c0.05,0.052,0.093,0.109,0.145,0.161l40.073,40.073
		c3.074,3.073,7.103,4.611,11.131,4.611c4.028,0,8.058-1.538,11.131-4.611c6.147-6.147,6.147-16.115,0-22.264l-13.2-13.2h40.304
		c8.694,0,15.742-7.049,15.742-15.742S158.557,40.073,149.862,40.073z"/>
</g>
<g>
</g>
<g>
</g>
<g>
</g>
<g>
</g>
<g>
</g>
<g>
</g>
<g>
</g>
<g>
</g>
<g>
</g>
<g>
</g>
<g>
</g>
<g>
</g>
<g>
</g>
<g>
</g>
<g>
</g>
</svg>
