<?xml version="1.0" encoding="iso-8859-1"?>
<!-- Generator: Adobe Illustrator 19.0.0, SVG Export Plug-In . SVG Version: 6.00 Build 0)  -->
<svg version="1.1" id="Layer_1" xmlns="http://www.w3.org/2000/svg" xmlns:xlink="http://www.w3.org/1999/xlink" x="0px" y="0px"
	 viewBox="0 0 512 512" style="enable-background:new 0 0 512 512;" xml:space="preserve">
<polygon style="fill:#CFF09E;" points="256,142.079 383.123,255.24 383.123,119.642 256,14.956 128.876,119.642 128.876,255.24 "/>
<g>
	<path style="fill:#507C5C;" d="M392.629,108.096L265.508,3.41c-5.522-4.547-13.492-4.547-19.015,0L119.368,108.096
		c-3.45,2.84-5.449,7.076-5.449,11.546V255.24c0,5.891,3.459,11.235,8.835,13.646c5.377,2.412,11.666,1.442,16.066-2.474
		l40.654-36.189v124.61c0,8.259,6.696,14.956,14.956,14.956h123.139c8.259,0,14.956-6.697,14.956-14.956V230.225l40.652,36.186
		c2.794,2.486,6.349,3.784,9.947,3.784c2.071,0,4.156-0.429,6.12-1.31c5.375-2.411,8.833-7.755,8.833-13.646V119.642
		C398.079,115.173,396.081,110.937,392.629,108.096z M302.614,339.879h-93.228V203.597L256,162.104l46.614,41.494L302.614,339.879
		L302.614,339.879z M368.167,221.903l-102.222-90.995c-5.668-5.043-14.22-5.046-19.889,0l-102.224,90.995v-95.202L256,34.33
		l112.167,92.371V221.903z"/>
	<path style="fill:#507C5C;" d="M454.169,512H57.831c-8.26,0-14.956-6.697-14.956-14.956V347.482
		c0-8.259,6.696-14.956,14.956-14.956h71.045c8.26,0,14.956,6.697,14.956,14.956s-6.696,14.956-14.956,14.956H72.787v119.649
		h366.426V362.438h-56.089c-8.259,0-14.956-6.697-14.956-14.956s6.697-14.956,14.956-14.956h71.045
		c8.259,0,14.956,6.697,14.956,14.956v149.562C469.125,505.303,462.428,512,454.169,512z"/>
	<path style="fill:#507C5C;" d="M383.124,429.741H128.876c-8.26,0-14.956-6.697-14.956-14.956s6.696-14.956,14.956-14.956h254.249
		c8.259,0,14.956,6.697,14.956,14.956S391.383,429.741,383.124,429.741z"/>
</g>
<g>
</g>
<g>
</g>
<g>
</g>
<g>
</g>
<g>
</g>
<g>
</g>
<g>
</g>
<g>
</g>
<g>
</g>
<g>
</g>
<g>
</g>
<g>
</g>
<g>
</g>
<g>
</g>
<g>
</g>
</svg>
