<?xml version="1.0" encoding="iso-8859-1"?>
<!-- Generator: Adobe Illustrator 19.0.0, SVG Export Plug-In . SVG Version: 6.00 Build 0)  -->
<svg version="1.1" id="Layer_1" xmlns="http://www.w3.org/2000/svg" xmlns:xlink="http://www.w3.org/1999/xlink" x="0px" y="0px"
	 viewBox="0 0 512 512" style="enable-background:new 0 0 512 512;" xml:space="preserve">
<circle style="fill:#CFF09E;" cx="123.515" cy="270.234" r="49.107"/>
<path style="fill:#507C5C;" d="M123.512,333.069c-34.648,0-62.837-28.188-62.837-62.837s28.188-62.837,62.837-62.837
	s62.837,28.188,62.837,62.837S158.16,333.069,123.512,333.069z M123.512,234.857c-19.506,0-35.377,15.871-35.377,35.377
	c0,19.506,15.871,35.377,35.377,35.377s35.377-15.871,35.377-35.377C158.889,250.728,143.019,234.857,123.512,234.857z"/>
<g>
	<path style="fill:#CFF09E;" d="M233.295,270.233c0,14.614-2.879,28.549-8.064,41.301h61.538
		c-5.183-12.752-8.064-26.687-8.064-41.301c0-40.501,21.947-75.853,54.582-94.881H178.712
		C211.347,194.38,233.295,229.733,233.295,270.233z"/>
	<circle style="fill:#CFF09E;" cx="388.49" cy="270.234" r="49.107"/>
</g>
<g>
	<path style="fill:#507C5C;" d="M388.488,333.069c-34.648,0-62.837-28.188-62.837-62.837s28.188-62.837,62.837-62.837
		s62.837,28.188,62.837,62.837S423.137,333.069,388.488,333.069z M388.488,234.857c-19.506,0-35.377,15.871-35.377,35.377
		c0,19.506,15.87,35.377,35.377,35.377s35.377-15.871,35.377-35.377C423.864,250.728,407.994,234.857,388.488,234.857z"/>
	<path style="fill:#507C5C;" d="M498.27,256.503c-7.583,0-13.73,6.147-13.73,13.73c0,52.963-43.089,96.052-96.052,96.052
		c-40.795,0-75.706-25.575-89.606-61.523c-0.279-0.721-0.56-1.44-0.82-2.165c-0.258-0.719-0.496-1.447-0.737-2.173
		c-0.25-0.751-0.503-1.501-0.733-2.256c-0.231-0.759-0.441-1.528-0.654-2.296c-0.202-0.726-0.409-1.451-0.593-2.182
		c-0.21-0.833-0.394-1.676-0.582-2.518c-0.151-0.676-0.31-1.348-0.448-2.028c-0.183-0.914-0.338-1.838-0.494-2.761
		c-0.106-0.622-0.224-1.243-0.317-1.867c-0.148-0.991-0.264-1.994-0.382-2.995c-0.067-0.57-0.15-1.138-0.206-1.709
		c-0.108-1.094-0.18-2.198-0.251-3.302c-0.032-0.49-0.081-0.978-0.106-1.469c-0.078-1.594-0.122-3.196-0.122-4.81
		c0-1.436,0.045-2.86,0.108-4.281c0.019-0.428,0.04-0.855,0.065-1.282c0.067-1.179,0.158-2.353,0.269-3.52
		c0.073-0.758,0.161-1.513,0.253-2.267c0.073-0.612,0.15-1.225,0.233-1.833c2.565-18.308,10.399-35.448,22.311-49.353
		c0.254-0.295,0.508-0.592,0.766-0.884c0.508-0.579,1.022-1.155,1.543-1.722c0.781-0.844,1.571-1.681,2.381-2.497
		c0.28-0.283,0.571-0.557,0.855-0.838c0.754-0.74,1.516-1.472,2.293-2.187c0.239-0.221,0.478-0.442,0.719-0.66
		c2.143-1.932,4.37-3.773,6.681-5.508c0.089-0.067,0.178-0.135,0.266-0.2c2.378-1.774,4.84-3.439,7.38-4.991
		c0.117-0.071,0.232-0.141,0.349-0.211c14.482-8.764,31.45-13.816,49.578-13.816c25.657,0,49.778,9.991,67.918,28.133
		c5.363,5.363,14.057,5.363,19.417,0c5.362-5.362,5.363-14.055,0-19.417c-23.327-23.329-54.345-36.176-87.337-36.176
		c-21.261,0-41.285,5.4-58.771,14.901h-59.986v-29.635c0-7.583-6.147-13.73-13.73-13.73c-7.583,0-13.73,6.147-13.73,13.73v29.638
		h-59.986c-17.487-9.501-37.51-14.901-58.771-14.901C55.407,146.722,0,202.129,0,270.233c0,68.105,55.407,123.512,123.512,123.512
		c48.342,0,90.279-27.921,110.551-68.481h43.873c20.272,40.56,62.209,68.481,110.551,68.481
		c68.105,0,123.512-55.407,123.512-123.512C512,262.649,505.853,256.503,498.27,256.503z M123.512,366.285
		c-52.963,0-96.052-43.087-96.052-96.052c0-52.963,43.089-96.052,96.052-96.052c18.128,0,35.095,5.051,49.578,13.816
		c0.117,0.07,0.233,0.14,0.349,0.211c2.54,1.551,5.002,3.217,7.38,4.991c0.089,0.066,0.178,0.133,0.266,0.2
		c2.311,1.735,4.538,3.577,6.681,5.508c0.242,0.218,0.481,0.439,0.719,0.66c0.777,0.715,1.539,1.446,2.293,2.187
		c0.284,0.28,0.575,0.555,0.855,0.838c0.81,0.816,1.6,1.653,2.381,2.497c0.523,0.567,1.035,1.142,1.543,1.722
		c0.258,0.292,0.512,0.589,0.766,0.884c11.912,13.904,19.746,31.045,22.311,49.352c0.084,0.61,0.161,1.221,0.233,1.833
		c0.091,0.755,0.178,1.509,0.253,2.267c0.11,1.167,0.2,2.341,0.269,3.52c0.025,0.427,0.045,0.855,0.065,1.282
		c0.063,1.421,0.108,2.845,0.108,4.281c0,1.613-0.043,3.216-0.122,4.81c-0.025,0.492-0.074,0.979-0.106,1.469
		c-0.071,1.104-0.143,2.208-0.251,3.302c-0.056,0.573-0.139,1.14-0.206,1.709c-0.118,1.001-0.233,2.003-0.382,2.995
		c-0.093,0.625-0.211,1.245-0.317,1.867c-0.157,0.923-0.312,1.847-0.494,2.761c-0.136,0.678-0.297,1.352-0.448,2.028
		c-0.188,0.842-0.372,1.685-0.582,2.518c-0.184,0.73-0.391,1.455-0.593,2.182c-0.213,0.768-0.422,1.536-0.654,2.296
		c-0.231,0.755-0.483,1.506-0.733,2.256c-0.242,0.726-0.479,1.455-0.737,2.173c-0.259,0.725-0.542,1.444-0.82,2.165
		C199.218,340.71,164.307,366.285,123.512,366.285z M268.078,297.804h-24.157c0.065-0.284,0.119-0.57,0.183-0.854
		c0.161-0.729,0.321-1.457,0.47-2.19c0.093-0.459,0.177-0.917,0.265-1.377c0.115-0.608,0.231-1.215,0.338-1.826
		c0.088-0.503,0.169-1.006,0.251-1.509c0.093-0.574,0.184-1.149,0.269-1.727c0.077-0.52,0.15-1.042,0.22-1.562
		c0.077-0.568,0.148-1.137,0.217-1.708c0.063-0.525,0.124-1.049,0.18-1.575c0.062-0.581,0.118-1.163,0.172-1.746
		c0.048-0.512,0.096-1.023,0.137-1.536c0.049-0.621,0.091-1.244,0.13-1.867c0.032-0.476,0.066-0.953,0.091-1.431
		c0.038-0.713,0.065-1.428,0.089-2.145c0.014-0.391,0.034-0.783,0.045-1.174c0.03-1.111,0.047-2.226,0.047-3.343
		c0-1.805-0.047-3.6-0.125-5.386c-0.005-0.122-0.008-0.246-0.014-0.369c-1.328-28.784-12.551-55.026-30.342-75.396h78.912
		c-17.791,20.37-29.014,46.612-30.342,75.396c-0.005,0.122-0.008,0.246-0.014,0.369c-0.077,1.788-0.125,3.581-0.125,5.386
		c0,1.118,0.016,2.233,0.047,3.343c0.011,0.393,0.03,0.783,0.045,1.174c0.026,0.715,0.052,1.432,0.089,2.145
		c0.025,0.478,0.06,0.953,0.091,1.431c0.04,0.623,0.081,1.247,0.13,1.867c0.041,0.512,0.089,1.024,0.137,1.536
		c0.054,0.584,0.11,1.166,0.172,1.746c0.056,0.526,0.118,1.05,0.18,1.575c0.069,0.57,0.14,1.14,0.217,1.708
		c0.07,0.522,0.143,1.043,0.22,1.562c0.085,0.577,0.176,1.152,0.269,1.727c0.081,0.504,0.163,1.006,0.251,1.509
		c0.107,0.611,0.222,1.219,0.338,1.826c0.088,0.459,0.172,0.919,0.265,1.377c0.148,0.733,0.308,1.462,0.47,2.19
		C267.959,297.234,268.014,297.521,268.078,297.804z"/>
</g>
<g>
</g>
<g>
</g>
<g>
</g>
<g>
</g>
<g>
</g>
<g>
</g>
<g>
</g>
<g>
</g>
<g>
</g>
<g>
</g>
<g>
</g>
<g>
</g>
<g>
</g>
<g>
</g>
<g>
</g>
</svg>
