<?xml version="1.0" encoding="iso-8859-1"?>
<!-- Generator: Adobe Illustrator 19.0.0, SVG Export Plug-In . SVG Version: 6.00 Build 0)  -->
<svg version="1.1" id="Layer_1" xmlns="http://www.w3.org/2000/svg" xmlns:xlink="http://www.w3.org/1999/xlink" x="0px" y="0px"
	 viewBox="0 0 512 512" style="enable-background:new 0 0 512 512;" xml:space="preserve">
<path style="fill:#CFF09E;" d="M283.795,313.02c0-45.558,28.451-84.447,68.544-99.938c-0.001,0-0.001,0-0.001,0
	c0.007-0.571,0.042-1.135,0.042-1.709c0-66.011-53.513-119.526-119.526-119.526c-39.546,0-74.59,19.217-96.347,48.808
	c-11.55-8.219-25.664-13.069-40.919-13.069c-39.031,0-70.674,31.641-70.674,70.674c0,24.327,12.293,45.779,31.004,58.493
	c-25.18,15.545-41.969,43.378-41.969,75.144c0,48.74,39.511,88.251,88.251,88.251h288.723
	C331.758,420.149,283.795,372.185,283.795,313.02z"/>
<path style="fill:#507C5C;" d="M512,313.021c0-46.939-27.514-90.058-70.094-109.848c-6.99-3.247-15.281-0.216-18.528,6.771
	c-3.247,6.986-0.216,15.281,6.771,18.528c32.775,15.235,53.955,48.422,53.955,84.549c0,51.379-41.8,93.179-93.179,93.179
	c-51.38,0-93.181-41.8-93.181-93.179c0-38.215,23.961-73.147,59.621-86.926c5.32-2.056,8.853-7.143,8.922-12.845l0.014-0.448
	c0.017-0.474,0.029-0.949,0.029-1.427c0-73.598-59.877-133.473-133.475-133.473c-38.017,0-74.368,16.471-99.551,44.603
	c-11.653-5.826-24.48-8.863-37.715-8.863c-46.661,0-84.623,37.962-84.623,84.623c0,21.675,8.279,42.227,22.756,57.737
	C12.342,275.195,0,302.466,0,331.898c0,56.353,45.847,102.2,102.2,102.2h288.723c0.006,0,0.013-0.001,0.018-0.001
	C457.696,434.087,512,379.777,512,313.021z M102.2,406.201c-40.97,0-74.302-33.332-74.302-74.302
	c0-25.957,13.214-49.61,35.348-63.272c4.024-2.484,6.515-6.836,6.619-11.565c0.103-4.729-2.194-9.185-6.105-11.843
	c-15.589-10.593-24.896-28.146-24.896-46.956c0-31.279,25.447-56.726,56.726-56.726c11.84,0,23.193,3.625,32.831,10.485
	c6.207,4.418,14.812,3.037,19.325-3.102c19.853-27.002,51.669-43.123,85.109-43.123c55.749,0,101.544,43.431,105.325,98.237
	c-18.631,9.008-34.604,22.608-46.582,39.753c-14.231,20.368-21.753,44.308-21.753,69.233c0,1.112,0.017,2.219,0.047,3.323
	c0.01,0.358,0.028,0.716,0.04,1.074c0.026,0.745,0.056,1.49,0.095,2.23c0.022,0.423,0.053,0.844,0.081,1.267
	c0.043,0.675,0.089,1.349,0.144,2.021c0.036,0.442,0.077,0.884,0.119,1.325c0.06,0.65,0.124,1.3,0.194,1.947
	c0.049,0.445,0.1,0.89,0.153,1.333c0.078,0.646,0.162,1.292,0.248,1.935c0.059,0.435,0.119,0.869,0.183,1.301
	c0.098,0.66,0.202,1.317,0.311,1.972c0.067,0.409,0.133,0.817,0.204,1.225c0.126,0.714,0.261,1.427,0.399,2.137
	c0.066,0.342,0.128,0.684,0.197,1.024c0.191,0.94,0.393,1.876,0.607,2.809c0.025,0.107,0.046,0.218,0.071,0.325
	c0.243,1.05,0.499,2.095,0.77,3.134c0.066,0.255,0.139,0.508,0.206,0.762c0.206,0.774,0.416,1.547,0.637,2.314
	c0.102,0.353,0.209,0.702,0.314,1.053c0.198,0.668,0.4,1.333,0.61,1.996c0.12,0.379,0.245,0.757,0.37,1.135
	c0.208,0.632,0.418,1.262,0.636,1.89c0.133,0.385,0.269,0.769,0.406,1.151c0.223,0.622,0.451,1.241,0.684,1.859
	c0.141,0.374,0.282,0.748,0.427,1.12c0.245,0.632,0.497,1.26,0.753,1.886c0.142,0.349,0.283,0.699,0.428,1.046
	c0.28,0.671,0.57,1.338,0.863,2.002c0.13,0.294,0.257,0.591,0.388,0.886c0.371,0.824,0.752,1.643,1.141,2.458
	c0.061,0.128,0.119,0.259,0.181,0.388c0.463,0.961,0.937,1.915,1.424,2.862c0.068,0.134,0.141,0.265,0.211,0.398
	c0.411,0.792,0.83,1.582,1.258,2.363c0.153,0.28,0.312,0.558,0.469,0.837c0.352,0.63,0.706,1.26,1.068,1.883
	c0.187,0.322,0.378,0.64,0.569,0.961c0.343,0.579,0.69,1.156,1.043,1.73c0.204,0.331,0.41,0.66,0.618,0.988
	c0.352,0.558,0.709,1.115,1.069,1.667c0.213,0.326,0.427,0.651,0.643,0.975c0.37,0.554,0.743,1.103,1.121,1.65
	c0.216,0.312,0.431,0.625,0.649,0.936c0.4,0.568,0.809,1.131,1.219,1.693c0.202,0.278,0.403,0.557,0.608,0.833
	c0.481,0.646,0.971,1.285,1.463,1.921c0.142,0.183,0.279,0.368,0.421,0.551c0.647,0.826,1.304,1.643,1.972,2.451
	c0.064,0.078,0.131,0.153,0.197,0.232c0.594,0.716,1.197,1.426,1.808,2.127c0.219,0.252,0.444,0.499,0.665,0.75
	c0.462,0.523,0.926,1.043,1.398,1.558c0.268,0.293,0.54,0.582,0.81,0.87c0.435,0.466,0.872,0.93,1.314,1.389
	c0.292,0.303,0.586,0.603,0.882,0.902c0.431,0.438,0.866,0.873,1.304,1.306c0.307,0.303,0.615,0.604,0.925,0.904
	c0.438,0.423,0.879,0.841,1.324,1.257c0.315,0.294,0.629,0.59,0.947,0.882c0.459,0.421,0.922,0.836,1.388,1.25
	c0.308,0.275,0.615,0.551,0.926,0.822c0.504,0.439,1.015,0.87,1.526,1.301c0.236,0.199,0.466,0.403,0.704,0.601H102.2V406.201z"/>
<g>
	<polygon style="fill:#CFF09E;" points="395.489,420.034 395.489,420.034 395.49,420.034 	"/>
	<path style="fill:#CFF09E;" d="M390.923,420.149h4.565v-0.116C393.972,420.098,392.455,420.149,390.923,420.149z"/>
</g>
<path style="fill:#507C5C;" d="M395.489,434.098h-4.564c-7.703,0-13.949-6.245-13.949-13.949c0-7.704,6.246-13.949,13.949-13.949
	c1.347,0,2.765-0.053,3.977-0.103c3.814-0.163,7.497,1.237,10.241,3.867c2.745,2.631,4.296,6.267,4.296,10.07
	C409.437,427.737,403.191,434.098,395.489,434.098z"/>
<g>
</g>
<g>
</g>
<g>
</g>
<g>
</g>
<g>
</g>
<g>
</g>
<g>
</g>
<g>
</g>
<g>
</g>
<g>
</g>
<g>
</g>
<g>
</g>
<g>
</g>
<g>
</g>
<g>
</g>
</svg>
