<?xml version="1.0" encoding="iso-8859-1"?>
<!-- Generator: Adobe Illustrator 19.0.0, SVG Export Plug-In . SVG Version: 6.00 Build 0)  -->
<svg version="1.1" id="Layer_1" xmlns="http://www.w3.org/2000/svg" xmlns:xlink="http://www.w3.org/1999/xlink" x="0px" y="0px"
	 viewBox="0 0 512 512" style="enable-background:new 0 0 512 512;" xml:space="preserve">
<path style="fill:#CFF09E;" d="M438.268,320.436c2.089-7.671,3.234-15.73,3.234-24.064c0-50.561-40.988-91.549-91.549-91.549
	c-36.024,0-67.164,20.821-82.106,51.072c-11.527-10.65-26.93-17.166-43.862-17.166c-35.71,0-64.659,28.948-64.659,64.659
	c0,35.348,28.369,64.052,63.578,64.631c-0.361,0.006-0.719,0.027-1.083,0.027c-28.672,0-52.97-18.669-61.439-44.509
	c-23.224,11.013-39.288,34.665-39.288,62.075l0,0c0,37.926,30.745,68.671,68.671,68.671h137.631h25.827h77.172
	c37.093,0,67.162-30.069,67.162-67.162l0,0C497.557,352.696,471.649,324.336,438.268,320.436z"/>
<path style="fill:#507C5C;" d="M455.142,309.35c0.534-4.308,0.805-8.643,0.805-12.976c0-58.444-47.548-105.992-105.992-105.992
	c-34.886,0-66.678,16.709-86.368,44.526c-11.942-6.92-25.55-10.621-39.601-10.621c-40.001,0-73.14,29.852-78.364,68.446H83.112
	c-29.9,0-54.226-24.326-54.226-54.228c0-15.87,7.066-30.816,18.757-40.988c14.122,23.196,39.458,37.865,67.528,37.865
	c0.389,0,0.773-0.012,1.158-0.025l0.207-0.007c7.874-0.153,14.173-6.587,14.161-14.463s-6.332-14.29-14.206-14.418
	c-27.224-0.448-49.372-22.962-49.372-50.19c0-27.689,22.527-50.216,50.216-50.216c12.662,0,24.758,4.733,34.061,13.329
	c3.344,3.091,7.952,4.424,12.43,3.593c4.477-0.83,8.303-3.722,10.321-7.805c13.109-26.539,39.609-43.026,69.158-43.026
	c36.253,0,67.983,25.701,75.446,61.111c1.645,7.804,9.301,12.801,17.112,11.154c7.805-1.646,12.798-9.306,11.154-17.112
	c-10.263-48.696-53.881-84.04-103.713-84.04c-34.886,0-66.678,16.709-86.368,44.526c-11.941-6.92-25.55-10.62-39.601-10.62
	c-43.617,0-79.102,35.484-79.102,79.102c0,3.978,0.3,7.893,0.878,11.721C15.081,183.057,0,209.79,0,238.505
	c0,45.828,37.285,83.114,83.114,83.114h53.676c-18.749,15.6-30.138,39.048-30.138,63.997c0,45.828,37.285,83.114,83.114,83.114
	h240.628c44.997,0,81.606-36.609,81.606-81.606C512,351.012,488.427,319.893,455.142,309.35z M430.394,439.843H189.766
	c-29.901,0-54.228-24.326-54.228-54.228c0-15.87,7.066-30.816,18.757-40.989c14.122,23.197,39.46,37.867,67.528,37.867
	c0.389,0,0.773-0.012,1.158-0.025l0.207-0.007c7.874-0.153,14.173-6.587,14.161-14.463s-6.332-14.29-14.206-14.418
	c-27.224-0.448-49.372-22.962-49.372-50.19c0-27.69,22.527-50.217,50.216-50.217c12.661,0,24.757,4.734,34.061,13.331
	c3.344,3.091,7.954,4.424,12.43,3.593c4.479-0.829,8.303-3.722,10.321-7.805c13.109-26.539,39.609-43.026,69.158-43.026
	c42.516,0,77.106,34.59,77.106,77.106c0,6.806-0.917,13.624-2.727,20.266c-1.106,4.06-0.387,8.397,1.969,11.882
	c2.354,3.485,6.111,5.771,10.289,6.26c26.522,3.099,46.522,25.602,46.522,52.342C483.114,416.192,459.463,439.843,430.394,439.843z"
	/>
<g>
</g>
<g>
</g>
<g>
</g>
<g>
</g>
<g>
</g>
<g>
</g>
<g>
</g>
<g>
</g>
<g>
</g>
<g>
</g>
<g>
</g>
<g>
</g>
<g>
</g>
<g>
</g>
<g>
</g>
</svg>
