<?xml version="1.0" encoding="iso-8859-1"?>
<!-- Generator: Adobe Illustrator 19.0.0, SVG Export Plug-In . SVG Version: 6.00 Build 0)  -->
<svg version="1.1" id="Layer_1" xmlns="http://www.w3.org/2000/svg" xmlns:xlink="http://www.w3.org/1999/xlink" x="0px" y="0px"
	 viewBox="0 0 512 512" style="enable-background:new 0 0 512 512;" xml:space="preserve">
<polygon style="fill:#CFF09E;" points="336.577,175.424 336.577,498.149 421.51,498.149 421.51,90.491 13.852,90.491 
	13.852,175.424 "/>
<path style="fill:#507C5C;" d="M498.148,322.725c-7.65,0-13.852,6.203-13.852,13.852v71.081h-48.935v-71.081V92.139l30.172-30.172
	c5.409-5.409,5.409-14.18,0-19.59c-5.409-5.408-14.18-5.408-19.59,0l-34.262,34.262H189.275V13.852
	c0-7.649-6.201-13.852-13.852-13.852H90.49c-7.65,0-13.852,6.203-13.852,13.852v62.787H13.852C6.201,76.639,0,82.842,0,90.491
	v84.931c0,7.649,6.201,13.852,13.852,13.852h62.787v232.235c0,7.649,6.201,13.852,13.852,13.852h232.235v62.787
	c0,7.649,6.201,13.852,13.852,13.852h84.933c7.65,0,13.852-6.203,13.852-13.852v-62.787h62.787c7.65,0,13.852-6.203,13.852-13.852
	v-84.933C512,328.928,505.799,322.725,498.148,322.725z M104.342,27.704h57.229v48.934h-57.229V27.704z M27.703,104.342h356.274
	l-57.228,57.228H175.423H90.49H27.703V104.342z M322.725,322.725H204.775l117.951-117.951V322.725z M104.342,407.659V189.275h71.081
	h123.623L165.63,322.692c-3.227,3.227-4.513,7.649-3.89,11.842c-0.1,0.669-0.168,1.348-0.168,2.045
	c0,7.649,6.201,13.852,13.852,13.852h147.303v57.23H104.342z M407.658,484.297h-57.229v-62.787v-84.933V177.071l57.229-57.229
	v216.735v84.933V484.297z"/>
<g>
</g>
<g>
</g>
<g>
</g>
<g>
</g>
<g>
</g>
<g>
</g>
<g>
</g>
<g>
</g>
<g>
</g>
<g>
</g>
<g>
</g>
<g>
</g>
<g>
</g>
<g>
</g>
<g>
</g>
</svg>
