<?xml version="1.0" encoding="iso-8859-1"?>
<!-- Generator: Adobe Illustrator 19.0.0, SVG Export Plug-In . SVG Version: 6.00 Build 0)  -->
<svg version="1.1" id="Layer_1" xmlns="http://www.w3.org/2000/svg" xmlns:xlink="http://www.w3.org/1999/xlink" x="0px" y="0px"
	 viewBox="0 0 512 512" style="enable-background:new 0 0 512 512;" xml:space="preserve">
<g>
	<rect x="71.024" y="71.024" style="fill:#CFF09E;" width="184.927" height="184.927"/>
	<rect x="255.943" y="71.024" style="fill:#CFF09E;" width="184.927" height="184.927"/>
	<rect x="71.024" y="256.06" style="fill:#CFF09E;" width="184.927" height="184.927"/>
</g>
<path style="fill:#507C5C;" d="M497.473,426.451h-42.078v-40.329c0-8.023-6.505-14.526-14.526-14.526s-14.526,6.503-14.526,14.526
	v40.329H270.472V270.578h155.873v37.681c0,8.023,6.505,14.526,14.526,14.526s14.526-6.503,14.526-14.526v-52.207
	c0-0.017-0.003-0.035-0.003-0.054c0-0.017,0.003-0.035,0.003-0.054V85.549h42.078c8.021,0,14.526-6.503,14.526-14.526
	s-6.505-14.526-14.526-14.526h-41.972V14.526C455.502,6.503,448.998,0,440.976,0s-14.526,6.503-14.526,14.526v41.972H255.946H85.549
	V14.526C85.549,6.503,79.045,0,71.024,0S56.498,6.503,56.498,14.526v41.972H14.526C6.505,56.498,0,63.001,0,71.024
	s6.505,14.526,14.526,14.526h41.972v170.397c0,0.017,0.003,0.035,0.003,0.054c0,0.017-0.003,0.035-0.003,0.054v170.397H14.526
	C6.505,426.451,0,432.954,0,440.976c0,8.023,6.505,14.526,14.526,14.526h41.972v41.972c0,8.023,6.505,14.526,14.526,14.526
	s14.526-6.503,14.526-14.526v-41.972h170.397h170.504v41.972c0,8.023,6.505,14.526,14.526,14.526s14.526-6.503,14.526-14.526
	v-41.972h41.972c8.021,0,14.526-6.503,14.526-14.526C512,432.954,505.495,426.451,497.473,426.451z M426.343,241.421H270.472V85.549
	h155.873v155.871H426.343z M241.421,241.421H85.549V85.549h155.871V241.421z M85.549,270.578h155.871v155.871H85.549V270.578z"/>
<g>
</g>
<g>
</g>
<g>
</g>
<g>
</g>
<g>
</g>
<g>
</g>
<g>
</g>
<g>
</g>
<g>
</g>
<g>
</g>
<g>
</g>
<g>
</g>
<g>
</g>
<g>
</g>
<g>
</g>
</svg>
