<?xml version="1.0" encoding="iso-8859-1"?>
<!-- Generator: Adobe Illustrator 19.0.0, SVG Export Plug-In . SVG Version: 6.00 Build 0)  -->
<svg version="1.1" id="Layer_1" xmlns="http://www.w3.org/2000/svg" xmlns:xlink="http://www.w3.org/1999/xlink" x="0px" y="0px"
	 viewBox="0 0 512.001 512.001" style="enable-background:new 0 0 512.001 512.001;" xml:space="preserve">
<g>
	<polygon style="fill:#CFF09E;" points="305.613,267.836 272.073,295.57 238.531,267.836 235.563,267.836 108.16,373.177 
		108.16,376.15 435.983,376.15 435.983,373.177 308.581,267.836 	"/>
	<polygon style="fill:#CFF09E;" points="192.791,124.02 192.791,155.4 108.16,155.4 108.16,160.042 272.073,295.57 435.983,160.042 
		435.983,124.02 	"/>
</g>
<path style="fill:#507C5C;" d="M498.306,223.664h-62.322c-7.562,0-13.694,6.132-13.694,13.694c0,0.044,0.007,0.088,0.007,0.133
	c0,0.053-0.008,0.105-0.008,0.159v106.435l-93.699-77.474l116.12-96.013c3.147-2.602,4.968-6.472,4.968-10.554V124.02
	c0-7.562-6.132-13.694-13.694-13.694H206.486V92.64c0-7.562-6.132-13.694-13.694-13.694h-71.267V55.207
	c0-5.157-2.896-9.876-7.495-12.211c-4.597-2.334-10.117-1.886-14.282,1.156L5.613,112.965C2.084,115.542,0,119.651,0,124.02
	c0,4.37,2.084,8.477,5.613,11.056l88.854,64.952v98.109c0,7.562,6.132,13.694,13.694,13.694s13.694-6.132,13.694-13.694V189.135
	l93.7,77.475L99.436,362.622c-3.147,2.602-4.968,6.472-4.968,10.554v2.973c0,7.562,6.132,13.694,13.694,13.694h48.628v66.95
	c0,7.562,6.132,13.694,13.694,13.694h327.823c7.562,0,13.694-6.132,13.694-13.694V237.359
	C512,229.795,505.869,223.664,498.306,223.664z M422.287,137.715v15.882L296.902,257.271c-0.005,0.004-0.011,0.008-0.016,0.012
	L272.071,277.8l-24.816-20.517c0,0-0.001-0.001-0.003-0.003l-106.651-88.184h52.19c7.562,0,13.694-6.132,13.694-13.694V155.4
	v-17.685H422.287L422.287,137.715z M94.135,165.858L36.9,124.02l57.235-41.839V92.64c0,7.562,6.132,13.694,13.694,13.694h71.268
	v17.686v17.685H108.16c-0.01,0-0.018,0.001-0.026,0.001h-0.305c-7.562,0-13.694,6.132-13.694,13.694L94.135,165.858L94.135,165.858z
	 M237.048,284.379l26.299,21.745c2.532,2.093,5.628,3.14,8.726,3.14s6.194-1.048,8.726-3.14l26.299-21.745l94.428,78.076H142.62
	L237.048,284.379z M484.611,443.099H184.177v-53.255h251.805c7.562,0,13.694-6.132,13.694-13.694v-2.973V251.052h34.935
	L484.611,443.099L484.611,443.099z"/>
<g>
</g>
<g>
</g>
<g>
</g>
<g>
</g>
<g>
</g>
<g>
</g>
<g>
</g>
<g>
</g>
<g>
</g>
<g>
</g>
<g>
</g>
<g>
</g>
<g>
</g>
<g>
</g>
<g>
</g>
</svg>
