<?xml version="1.0" encoding="iso-8859-1"?>
<!-- Generator: Adobe Illustrator 19.0.0, SVG Export Plug-In . SVG Version: 6.00 Build 0)  -->
<svg version="1.1" id="Layer_1" xmlns="http://www.w3.org/2000/svg" xmlns:xlink="http://www.w3.org/1999/xlink" x="0px" y="0px"
	 viewBox="0 0 512.001 512.001" style="enable-background:new 0 0 512.001 512.001;" xml:space="preserve">
<path style="fill:#CFF09E;" d="M222.337,142.151h-94.731c-62.878,0-113.85,50.973-113.85,113.85l0,0
	c0,62.877,50.972,113.85,113.85,113.85h187.227h69.561c62.877,0,113.85-50.972,113.85-113.85l0,0
	c0-62.877-50.972-113.85-113.85-113.85h-52.96 M217.68,320.289h-85.282c-11.955,0-21.646-9.692-21.646-21.646V213.36
	c0-11.955,9.692-21.646,21.646-21.646h85.282c11.955,0,21.646,9.692,21.646,21.646v54.463v30.819
	C239.328,310.597,229.636,320.289,217.68,320.289z"/>
<path style="fill:#507C5C;" d="M384.393,383.607H127.607C57.243,383.607,0,326.364,0,256.002s57.243-127.608,127.607-127.608h94.731
	c7.598,0,13.757,6.16,13.757,13.757c0,7.597-6.159,13.757-13.757,13.757h-94.731c-55.191,0-100.093,44.901-100.093,100.093
	s44.902,100.094,100.093,100.094h256.788c55.191,0,100.093-44.902,100.093-100.093c0-55.192-44.902-100.094-100.093-100.094h-52.958
	c-7.597,0-13.757-6.16-13.757-13.757c0-7.596,6.16-13.757,13.757-13.757h52.958c70.362,0,127.607,57.243,127.607,127.607
	S454.757,383.607,384.393,383.607z M217.68,334.046h-85.282c-19.521,0-35.403-15.882-35.403-35.403V213.36
	c0-19.521,15.882-35.403,35.403-35.403h85.282c19.521,0,35.403,15.882,35.403,35.403v85.282
	C253.085,318.163,237.203,334.046,217.68,334.046z M132.398,205.469c-4.351,0-7.89,3.54-7.89,7.89v85.282
	c0,4.35,3.54,7.89,7.89,7.89h85.282c4.351,0,7.89-3.54,7.89-7.89v-85.282c0-4.35-3.54-7.89-7.89-7.89H132.398z"/>
<g>
</g>
<g>
</g>
<g>
</g>
<g>
</g>
<g>
</g>
<g>
</g>
<g>
</g>
<g>
</g>
<g>
</g>
<g>
</g>
<g>
</g>
<g>
</g>
<g>
</g>
<g>
</g>
<g>
</g>
</svg>
