<?xml version="1.0" encoding="iso-8859-1"?>
<!-- Generator: Adobe Illustrator 19.0.0, SVG Export Plug-In . SVG Version: 6.00 Build 0)  -->
<svg version="1.1" id="Layer_1" xmlns="http://www.w3.org/2000/svg" xmlns:xlink="http://www.w3.org/1999/xlink" x="0px" y="0px"
	 viewBox="0 0 512 512" style="enable-background:new 0 0 512 512;" xml:space="preserve">
<path style="fill:#507C5C;" d="M394.312,512H157.059c-8.693,0-15.742-7.049-15.742-15.742v-68.501
	c0-8.693,7.049-15.742,15.742-15.742h125.923c8.693,0,15.742,7.049,15.742,15.742c0,8.693-7.049,15.742-15.742,15.742H172.801
	v37.017H378.57v-37.017h-25.892c-8.693,0-15.742-7.049-15.742-15.742c0-8.693,7.049-15.742,15.742-15.742h41.634
	c8.693,0,15.742,7.049,15.742,15.742v68.501C410.054,504.951,403.005,512,394.312,512z"/>
<path style="fill:#CFF09E;" d="M293.314,211.178V49.567c0-15.208-12.406-28.161-28.351-28.701
	c-16.74-0.567-30.497,12.2-30.497,28.029V211.71l-0.316-162.705c0-15.49-13.173-28.047-29.423-28.047h-1.132
	c-16.25,0-29.423,12.557-29.423,28.047v121.284v24.268v73.345l-28.63-69.71c-5.036-15.038-21.919-23.331-37.696-18.53
	c-15.777,4.809-24.477,20.894-19.44,35.937l62.862,129.454c7.764,15.989,24.562,26.226,43.045,26.234l169.199,0.074
	c26.217,0.011,47.476-20.243,47.478-45.233l0.017-111.154c0-15.49-13.173-28.047-29.423-28.047l0,0
	c-16.25,0-29.423,12.557-29.423,28.047v-6.667c0-15.49-13.173-28.047-29.423-28.047l0,0c-16.25,0-29.423,12.557-29.423,28.047"/>
<g>
	<path style="fill:#507C5C;" d="M363.535,387.102c-0.011,0-0.019,0-0.028,0l-169.199-0.074c-24.398-0.011-46.851-13.788-57.2-35.1
		L74.246,222.474c-0.296-0.609-0.553-1.236-0.767-1.876c-3.731-11.142-2.813-23.046,2.586-33.519
		c5.595-10.856,15.251-18.837,27.189-22.475c22.042-6.708,45.645,3.751,55.174,23.564V49.003c0-24.145,20.261-43.788,45.165-43.788
		h1.132c11.265,0,21.581,4.02,29.5,10.657c8.589-7.24,19.81-11.131,31.27-10.739c24.427,0.828,43.56,20.346,43.56,44.435v117.005
		c4.316-1.335,8.915-2.054,13.681-2.054c13.207,0,25.105,5.524,33.371,14.313c7.255-4.822,16.033-7.646,25.475-7.646
		c24.904,0,45.165,19.644,45.165,43.789l-0.017,111.155c-0.002,16.433-6.676,31.843-18.793,43.388
		C396.038,380.856,380.267,387.102,363.535,387.102z M103.101,209.819l62.329,128.357c5.122,10.546,16.463,17.363,28.893,17.368
		l169.199,0.074c0.006,0,0.011,0,0.016,0c8.609,0,16.666-3.159,22.689-8.896c5.818-5.544,9.023-12.86,9.025-20.597l0.017-111.154
		c0-6.783-6.136-12.302-13.68-12.302c-7.544,0-13.681,5.521-13.681,12.305c0,8.693-7.049,15.742-15.742,15.742
		s-15.742-7.049-15.742-15.742v-6.665c0-6.786-6.138-12.305-13.681-12.305s-13.681,5.521-13.681,12.305v2.87
		c0,8.693-7.049,15.742-15.742,15.742c-8.693,0-15.742-7.049-15.742-15.742V49.567c0-6.906-5.895-12.723-13.143-12.968
		c-4.093-0.151-7.792,1.256-10.55,3.923c-2.368,2.287-3.671,5.263-3.671,8.373V211.71c0,8.688-7.04,15.732-15.726,15.742
		c-0.005,0-0.011,0-0.016,0c-8.682,0-15.725-7.029-15.742-15.71v-0.042l-0.316-162.663c0-6.815-6.138-12.335-13.681-12.335h-1.132
		c-7.545,0-13.681,5.521-13.681,12.304v218.898c0,7.518-5.318,13.988-12.693,15.444c-7.375,1.456-14.755-2.508-17.61-9.464
		l-28.63-69.71c-0.132-0.323-0.255-0.649-0.365-0.979c-2.308-6.889-10.629-10.766-18.187-8.472c-3.732,1.14-6.712,3.548-8.378,6.783
		C103.08,203.383,102.174,206.304,103.101,209.819z"/>
	<path style="fill:#507C5C;" d="M437.207,65.798c0.17-0.208,0.321-0.427,0.48-0.642c0.146-0.197,0.299-0.39,0.436-0.593
		c0.164-0.244,0.305-0.496,0.455-0.748c0.113-0.192,0.233-0.378,0.338-0.573c0.134-0.25,0.249-0.507,0.368-0.763
		c0.099-0.211,0.205-0.419,0.294-0.634c0.101-0.246,0.184-0.496,0.272-0.746c0.083-0.236,0.175-0.468,0.247-0.708
		c0.076-0.25,0.132-0.505,0.195-0.757c0.061-0.246,0.131-0.486,0.179-0.737c0.058-0.294,0.094-0.59,0.135-0.886
		c0.03-0.213,0.071-0.422,0.091-0.636c0.102-1.036,0.102-2.08,0-3.115c-0.02-0.216-0.061-0.423-0.091-0.636
		c-0.041-0.296-0.077-0.593-0.135-0.886c-0.049-0.25-0.118-0.491-0.179-0.737c-0.063-0.253-0.12-0.507-0.195-0.757
		c-0.072-0.241-0.164-0.472-0.247-0.707c-0.09-0.25-0.172-0.502-0.274-0.749c-0.09-0.216-0.195-0.422-0.293-0.631
		c-0.12-0.257-0.235-0.515-0.368-0.765c-0.105-0.197-0.225-0.383-0.338-0.573c-0.148-0.25-0.291-0.504-0.455-0.748
		c-0.137-0.205-0.291-0.397-0.436-0.593c-0.159-0.214-0.309-0.433-0.48-0.642c-0.266-0.324-0.551-0.63-0.842-0.93
		c-0.068-0.071-0.126-0.148-0.195-0.217L396.097,4.609c-6.149-6.146-16.113-6.146-22.264,0c-6.147,6.147-6.147,16.115,0,22.264
		l13.2,13.2h-40.304c-8.693,0-15.742,7.049-15.742,15.742s7.049,15.742,15.742,15.742h40.304l-13.2,13.2
		c-6.147,6.147-6.147,16.115,0,22.264c3.074,3.073,7.103,4.611,11.131,4.611c4.028,0,8.057-1.538,11.131-4.611l40.073-40.073
		c0.069-0.069,0.128-0.146,0.195-0.217C436.655,66.428,436.941,66.121,437.207,65.798z"/>
</g>
<g>
</g>
<g>
</g>
<g>
</g>
<g>
</g>
<g>
</g>
<g>
</g>
<g>
</g>
<g>
</g>
<g>
</g>
<g>
</g>
<g>
</g>
<g>
</g>
<g>
</g>
<g>
</g>
<g>
</g>
</svg>
