<?xml version="1.0" encoding="iso-8859-1"?>
<!-- Generator: Adobe Illustrator 19.0.0, SVG Export Plug-In . SVG Version: 6.00 Build 0)  -->
<svg version="1.1" id="Layer_1" xmlns="http://www.w3.org/2000/svg" xmlns:xlink="http://www.w3.org/1999/xlink" x="0px" y="0px"
	 viewBox="0 0 512 512" style="enable-background:new 0 0 512 512;" xml:space="preserve">
<path style="fill:#507C5C;" d="M382.035,512H178.742c-7.45,0-13.489-6.04-13.489-13.489v-58.696c0-7.448,6.039-13.489,13.489-13.489
	h107.899c7.448,0,13.489,6.04,13.489,13.489c0,7.448-6.04,13.489-13.489,13.489h-94.411v31.718h176.315v-31.718h-22.187
	c-7.448,0-13.489-6.04-13.489-13.489c0-7.448,6.04-13.489,13.489-13.489h35.676c7.448,0,13.489,6.04,13.489,13.489v58.696
	C395.524,505.961,389.484,512,382.035,512z"/>
<path style="fill:#CFF09E;" d="M295.494,254.24V129.25c0-13.031-10.63-24.13-24.293-24.592
	c-14.344-0.486-26.131,10.454-26.131,24.016v126.021l-0.271-125.927c0-13.273-11.287-24.033-25.212-24.033h-0.97
	c-13.924,0-25.212,10.76-25.212,24.033v90.434v20.794v62.846l-24.532-59.732c-4.315-12.886-18.782-19.991-32.3-15.877
	c-13.518,4.121-20.973,17.903-16.657,30.793l53.864,110.923c6.653,13.7,21.046,22.472,36.883,22.479l144.979,0.063
	c22.464,0.009,40.68-17.345,40.682-38.758l0.015-95.243c0-13.273-11.287-24.033-25.212-24.033l0,0
	c-13.924,0-25.212,10.76-25.212,24.033v-5.712c0-13.273-11.287-24.033-25.212-24.033l0,0c-13.924,0-25.212,10.76-25.212,24.033"/>
<g>
	<path style="fill:#507C5C;" d="M355.662,404.98c-0.008,0-0.016,0-0.024,0l-144.979-0.063
		c-20.905-0.009-40.142-11.813-49.011-30.074l-53.865-110.925c-0.254-0.522-0.473-1.059-0.657-1.609
		c-3.197-9.546-2.409-19.747,2.216-28.721c4.794-9.3,13.068-16.139,23.299-19.256c18.891-5.746,39.112,3.216,47.275,20.191V128.768
		c0-20.689,17.361-37.52,38.7-37.52h0.97c9.652,0,18.492,3.445,25.278,9.132c7.359-6.205,16.983-9.545,26.794-9.202
		c20.93,0.71,37.326,17.434,37.326,38.074v86.767c3.699-1.142,7.637-1.759,11.722-1.759c11.317,0,21.513,4.733,28.596,12.264
		c6.217-4.132,13.738-6.551,21.829-6.551c21.339,0,38.7,16.832,38.7,37.521l-0.015,95.244c-0.001,14.081-5.72,27.286-16.103,37.177
		C383.512,399.629,370.001,404.98,355.662,404.98z M132.507,253.074l53.407,109.983c4.388,9.036,14.106,14.878,24.756,14.882
		l144.978,0.063c0.005,0,0.009,0,0.013,0c7.378,0,14.282-2.707,19.442-7.622c4.985-4.751,7.732-11.019,7.733-17.648l0.015-95.243
		c0-5.812-5.259-10.541-11.723-10.541c-6.464,0-11.723,4.73-11.723,10.544c0,7.448-6.04,13.489-13.489,13.489
		s-13.489-6.04-13.489-13.489v-5.711c0-5.815-5.259-10.544-11.723-10.544s-11.722,4.73-11.722,10.544v2.459
		c0,7.448-6.04,13.489-13.489,13.489c-7.448,0-13.489-6.04-13.489-13.489V129.249c0-5.917-5.053-10.901-11.263-11.112
		c-3.471-0.124-6.677,1.076-9.039,3.361c-2.029,1.96-3.147,4.509-3.147,7.175v126.021c0,7.444-6.029,13.48-13.474,13.489
		c-0.004,0-0.011,0-0.015,0c-7.438,0-13.472-6.02-13.489-13.46v-0.028l-0.271-125.898c0-5.842-5.259-10.572-11.723-10.572h-0.97
		c-6.464,0-11.723,4.73-11.723,10.543v174.076c0,6.442-4.556,11.986-10.877,13.234c-6.321,1.245-12.64-2.149-15.09-8.109
		l-24.532-59.732c-0.113-0.277-0.217-0.557-0.313-0.84c-1.977-5.903-9.116-9.225-15.582-7.258c-3.199,0.977-5.752,3.04-7.18,5.811
		C132.491,247.559,131.713,250.064,132.507,253.074z"/>
	<path style="fill:#507C5C;" d="M244.948,66.383c-7.45,0-13.489-6.04-13.489-13.489V13.489C231.46,6.04,237.498,0,244.948,0
		s13.489,6.04,13.489,13.489v39.406C258.438,60.343,252.398,66.383,244.948,66.383z"/>
	<path style="fill:#507C5C;" d="M374.236,156.267h-39.406c-7.448,0-13.489-6.04-13.489-13.489s6.04-13.489,13.489-13.489h39.406
		c7.448,0,13.489,6.04,13.489,13.489S381.686,156.267,374.236,156.267z"/>
	<path style="fill:#507C5C;" d="M155.066,156.267H115.66c-7.45,0-13.489-6.04-13.489-13.489s6.039-13.489,13.489-13.489h39.406
		c7.45,0,13.489,6.04,13.489,13.489S162.515,156.267,155.066,156.267z"/>
	<path style="fill:#507C5C;" d="M308.505,92.708c-3.453,0-6.903-1.318-9.538-3.951c-5.267-5.267-5.267-13.808,0-19.077
		l27.865-27.863c5.27-5.266,13.808-5.263,19.077,0c5.267,5.267,5.267,13.808,0,19.077l-27.865,27.863
		C315.408,91.392,311.955,92.708,308.505,92.708z"/>
	<path style="fill:#507C5C;" d="M181.391,92.708c-3.452,0-6.905-1.318-9.538-3.951L143.99,60.894
		c-5.267-5.267-5.267-13.808,0-19.077c5.267-5.266,13.808-5.266,19.077,0l27.863,27.863c5.267,5.267,5.267,13.808,0,19.077
		C188.296,91.392,184.843,92.708,181.391,92.708z"/>
</g>
<g>
</g>
<g>
</g>
<g>
</g>
<g>
</g>
<g>
</g>
<g>
</g>
<g>
</g>
<g>
</g>
<g>
</g>
<g>
</g>
<g>
</g>
<g>
</g>
<g>
</g>
<g>
</g>
<g>
</g>
</svg>
