<?xml version="1.0" encoding="iso-8859-1"?>
<!-- Generator: Adobe Illustrator 19.0.0, SVG Export Plug-In . SVG Version: 6.00 Build 0)  -->
<svg version="1.1" id="Layer_1" xmlns="http://www.w3.org/2000/svg" xmlns:xlink="http://www.w3.org/1999/xlink" x="0px" y="0px"
	 viewBox="0 0 512 512" style="enable-background:new 0 0 512 512;" xml:space="preserve">
<path style="fill:#507C5C;" d="M451.212,512H218.738c-8.519,0-15.425-6.907-15.425-15.425v-67.121
	c0-8.518,6.906-15.425,15.425-15.425h123.388c8.519,0,15.425,6.907,15.425,15.425c0,8.518-6.906,15.425-15.425,15.425H234.163
	v36.272h201.624v-36.272h-25.372c-8.519,0-15.425-6.907-15.425-15.425c0-8.518,6.906-15.425,15.425-15.425h40.797
	c8.519,0,15.425,6.907,15.425,15.425v67.121C466.637,505.093,459.731,512,451.212,512z"/>
<path style="fill:#CFF09E;" d="M438.741,193.475L438.741,193.475c-15.923,0-28.831,12.304-28.831,27.482v-6.531
	c0-15.178-12.908-27.482-28.831-27.482l0,0c-15.923,0-28.831,12.304-28.831,27.482v-12.092c0-14.902-12.156-27.594-27.78-28.123
	c-16.403-0.555-29.883,11.954-29.883,27.464v16.085l-0.312-174.856c0-15.178-12.908-27.482-28.831-27.482h-1.109
	c-15.923,0-28.831,12.304-28.831,27.482v134.266v23.779v71.867l-59.571-65.332c-8.633-9.469-22.455-12.158-34.009-6.616l0,0
	c-16.756,8.038-21.751,29.529-10.256,44.132l81.397,103.413c0,0,18.474,25.706,42.178,25.706l165.791,0.073
	c25.689,0.011,46.52-19.835,46.521-44.322l0.017-108.915C467.573,205.78,454.664,193.475,438.741,193.475z"/>
<g>
	<path style="fill:#507C5C;" d="M421.054,389.619c-0.011,0-0.017,0-0.028,0l-165.791-0.072c-29.923,0-51.206-27.362-54.474-31.821
		l-81.213-103.183c-8.388-10.657-11.441-24.347-8.37-37.56c3.07-13.211,11.845-24.154,24.075-30.021
		c17.826-8.547,38.756-4.479,52.079,10.13l32.748,35.917V42.906C220.08,19.249,239.933,0,264.336,0h1.109
		C289.847,0,309.7,19.249,309.7,42.906l0.21,117.924c4.828-1.504,9.931-2.218,15.081-2.036c14.331,0.486,26.801,7.537,34.502,18.183
		c6.389-3.475,13.754-5.459,21.587-5.459c12.94,0,24.601,5.413,32.701,14.024c7.109-4.725,15.71-7.492,24.962-7.492
		c24.402,0,44.255,19.249,44.255,42.907l-0.017,108.916c-0.002,16.102-6.542,31.201-18.414,42.514
		C452.903,383.499,437.449,389.619,421.054,389.619z M154.511,213.423c-1.994,0-4.014,0.443-5.915,1.356
		c-3.742,1.795-6.428,5.144-7.368,9.189c-0.939,4.043-0.006,8.234,2.562,11.495l81.397,103.414c0.139,0.176,0.275,0.355,0.406,0.538
		c3.631,4.965,16.957,19.283,29.653,19.283l165.797,0.072c0.005,0,0.009,0,0.014,0c8.436,0,16.332-3.096,22.233-8.717
		c5.703-5.433,8.843-12.601,8.843-20.182l0.017-108.915c0-6.647-6.014-12.055-13.406-12.055c-7.392,0-13.406,5.41-13.406,12.058
		c0,8.518-6.906,15.425-15.425,15.425c-8.519,0-15.425-6.907-15.425-15.425v-6.531c0-6.65-6.014-12.058-13.406-12.058
		s-13.406,5.41-13.406,12.058c0,8.518-6.906,15.425-15.425,15.425s-15.425-6.907-15.425-15.425v-12.093
		c0-6.767-5.777-12.466-12.878-12.707c-3.956-0.153-7.635,1.231-10.338,3.844c-2.32,2.241-3.597,5.157-3.597,8.204v16.085
		c0,8.515-6.898,15.417-15.411,15.425c-0.003,0-0.009,0-0.014,0c-8.508,0.002-15.409-6.889-15.425-15.397v-0.045L278.85,42.934
		c0-6.674-6.014-12.084-13.406-12.084h-1.109c-7.392,0-13.406,5.409-13.406,12.056v229.913c0,6.369-3.913,12.082-9.852,14.382
		c-5.94,2.298-12.681,0.716-16.97-3.99l-59.571-65.332C161.881,214.967,158.237,213.423,154.511,213.423z"/>
	<path style="fill:#507C5C;" d="M94.82,106.001H44.427c-8.519,0-15.425,6.907-15.425,15.425s6.906,15.425,15.425,15.425h13.153
		l-12.005,12.005c-6.023,6.023-6.023,15.79,0,21.815c3.012,3.011,6.96,4.518,10.907,4.518s7.896-1.507,10.907-4.518l12.005-12.005
		v13.153c0,8.518,6.906,15.425,15.425,15.425s15.425-6.907,15.425-15.425v-50.393C110.244,112.907,103.339,106.001,94.82,106.001z"
		/>
	<path style="fill:#507C5C;" d="M184.561,66.652h-13.153l12.005-12.005c6.023-6.023,6.023-15.79,0-21.815
		c-6.023-6.022-15.79-6.022-21.815,0l-12.005,12.005V31.684c0-8.518-6.906-15.425-15.425-15.425s-15.425,6.907-15.425,15.425v50.393
		c0,8.518,6.906,15.425,15.425,15.425h50.393c8.519,0,15.425-6.907,15.425-15.425S193.081,66.652,184.561,66.652z"/>
</g>
<g>
</g>
<g>
</g>
<g>
</g>
<g>
</g>
<g>
</g>
<g>
</g>
<g>
</g>
<g>
</g>
<g>
</g>
<g>
</g>
<g>
</g>
<g>
</g>
<g>
</g>
<g>
</g>
<g>
</g>
</svg>
