<?xml version="1.0" encoding="iso-8859-1"?>
<!-- Generator: Adobe Illustrator 19.0.0, SVG Export Plug-In . SVG Version: 6.00 Build 0)  -->
<svg version="1.1" id="Layer_1" xmlns="http://www.w3.org/2000/svg" xmlns:xlink="http://www.w3.org/1999/xlink" x="0px" y="0px"
	 viewBox="0 0 512.002 512.002" style="enable-background:new 0 0 512.002 512.002;" xml:space="preserve">
<g>
	<path style="fill:#CFF09E;" d="M384.703,386.086V220.84H127.297v165.245c0,21.603,20.268,39.115,45.269,39.115h166.868
		C364.435,425.2,384.703,407.688,384.703,386.086z"/>
	<path style="fill:#CFF09E;" d="M339.434,425.2H172.566c-25.003,0-45.269-17.512-45.269-39.115v69.581
		c0,22.01,20.65,39.853,46.124,39.853h165.158c25.474,0,46.124-17.843,46.124-39.853v-69.581
		C384.703,407.688,364.435,425.2,339.434,425.2z"/>
</g>
<path style="fill:#507C5C;" d="M384.703,153.284c9.102,0,16.48-7.38,16.48-16.481V16.481C401.183,7.38,393.805,0,384.703,0H127.297
	c-9.102,0-16.481,7.38-16.481,16.481v204.36v165.245v69.581c0,31.064,28.084,56.335,62.605,56.335h165.159
	c34.52,0,62.605-25.271,62.605-56.335v-69.581V220.84c0-9.101-7.378-16.481-16.481-16.481H143.778V32.961h224.445v103.842
	C368.222,145.904,375.601,153.284,384.703,153.284z M368.222,455.665c0,12.888-13.298,23.374-29.643,23.374H173.421
	c-16.345,0-29.643-10.485-29.643-23.374V435.26c0.227,0.109,0.466,0.203,0.695,0.308c0.684,0.316,1.374,0.623,2.073,0.918
	c0.369,0.155,0.742,0.305,1.114,0.453c0.687,0.275,1.383,0.536,2.083,0.788c0.363,0.132,0.725,0.264,1.091,0.389
	c0.817,0.277,1.645,0.536,2.479,0.783c0.249,0.074,0.494,0.157,0.745,0.227c1.084,0.308,2.182,0.588,3.291,0.842
	c0.27,0.063,0.546,0.112,0.817,0.171c0.845,0.183,1.697,0.354,2.556,0.504c0.396,0.069,0.794,0.13,1.192,0.193
	c0.76,0.12,1.523,0.227,2.292,0.321c0.417,0.051,0.836,0.101,1.254,0.143c0.803,0.082,1.612,0.148,2.423,0.203
	c0.372,0.026,0.743,0.058,1.117,0.076c1.18,0.061,2.367,0.101,3.565,0.101h166.868c1.196,0,2.383-0.038,3.565-0.101
	c0.374-0.018,0.745-0.051,1.117-0.076c0.812-0.054,1.62-0.12,2.423-0.203c0.42-0.043,0.837-0.094,1.254-0.143
	c0.77-0.094,1.533-0.203,2.292-0.321c0.399-0.063,0.796-0.122,1.192-0.193c0.859-0.15,1.711-0.321,2.556-0.504
	c0.272-0.059,0.547-0.109,0.817-0.171c1.109-0.254,2.207-0.534,3.291-0.842c0.25-0.071,0.496-0.153,0.745-0.227
	c0.834-0.247,1.661-0.504,2.479-0.783c0.368-0.125,0.728-0.257,1.091-0.389c0.7-0.252,1.396-0.513,2.083-0.788
	c0.372-0.148,0.745-0.3,1.114-0.453c0.699-0.295,1.389-0.602,2.073-0.918c0.229-0.105,0.468-0.199,0.695-0.308V455.665z
	 M368.222,386.086c0,12.481-12.914,22.634-28.788,22.634H172.566c-15.874,0-28.788-10.154-28.788-22.634V237.321h224.445V386.086z"
	/>
<g>
</g>
<g>
</g>
<g>
</g>
<g>
</g>
<g>
</g>
<g>
</g>
<g>
</g>
<g>
</g>
<g>
</g>
<g>
</g>
<g>
</g>
<g>
</g>
<g>
</g>
<g>
</g>
<g>
</g>
</svg>
