<?xml version="1.0" encoding="iso-8859-1"?>
<!-- Generator: Adobe Illustrator 19.0.0, SVG Export Plug-In . SVG Version: 6.00 Build 0)  -->
<svg version="1.1" id="Layer_1" xmlns="http://www.w3.org/2000/svg" xmlns:xlink="http://www.w3.org/1999/xlink" x="0px" y="0px"
	 viewBox="0 0 512 512" style="enable-background:new 0 0 512 512;" xml:space="preserve">
<path style="fill:#507C5C;" d="M496.941,512H15.059C6.743,512,0,505.258,0,496.941V15.059C0,6.742,6.743,0,15.059,0h481.882
	C505.257,0,512,6.742,512,15.059v481.882C512,505.258,505.257,512,496.941,512z M30.118,481.882h451.765V30.118H30.118V481.882z"/>
<rect x="91.106" y="92.612" style="fill:#CFF09E;" width="126.494" height="126.494"/>
<path style="fill:#507C5C;" d="M217.6,234.165H91.106c-8.315,0-15.059-6.742-15.059-15.059V92.612
	c0-8.317,6.743-15.059,15.059-15.059H217.6c8.315,0,15.059,6.742,15.059,15.059v126.494
	C232.659,227.423,225.915,234.165,217.6,234.165z M106.165,204.047h96.376v-96.376h-96.376V204.047z"/>
<rect x="294.4" y="92.612" style="fill:#CFF09E;" width="126.494" height="126.494"/>
<path style="fill:#507C5C;" d="M420.894,234.165H294.4c-8.315,0-15.059-6.742-15.059-15.059V92.612
	c0-8.317,6.743-15.059,15.059-15.059h126.494c8.315,0,15.059,6.742,15.059,15.059v126.494
	C435.953,227.423,429.21,234.165,420.894,234.165z M309.459,204.047h96.376v-96.376h-96.376V204.047z"/>
<rect x="91.106" y="292.894" style="fill:#CFF09E;" width="126.494" height="126.494"/>
<g>
	<path style="fill:#507C5C;" d="M217.6,434.447H91.106c-8.315,0-15.059-6.742-15.059-15.059V292.894
		c0-8.317,6.743-15.059,15.059-15.059H217.6c8.315,0,15.059,6.742,15.059,15.059v126.494
		C232.659,427.705,225.915,434.447,217.6,434.447z M106.165,404.329h96.376v-96.376h-96.376V404.329z"/>
	<path style="fill:#507C5C;" d="M420.894,434.447H294.4c-8.315,0-15.059-6.742-15.059-15.059V292.894
		c0-8.317,6.743-15.059,15.059-15.059h126.494c8.315,0,15.059,6.742,15.059,15.059v63.247c0,8.317-6.743,15.059-15.059,15.059
		s-15.059-6.742-15.059-15.059v-48.188h-96.376v96.376h111.435c8.315,0,15.059,6.742,15.059,15.059S429.21,434.447,420.894,434.447z
		"/>
</g>
<g>
</g>
<g>
</g>
<g>
</g>
<g>
</g>
<g>
</g>
<g>
</g>
<g>
</g>
<g>
</g>
<g>
</g>
<g>
</g>
<g>
</g>
<g>
</g>
<g>
</g>
<g>
</g>
<g>
</g>
</svg>
