<?xml version="1.0" encoding="iso-8859-1"?>
<!-- Generator: Adobe Illustrator 19.0.0, SVG Export Plug-In . SVG Version: 6.00 Build 0)  -->
<svg version="1.1" id="Layer_1" xmlns="http://www.w3.org/2000/svg" xmlns:xlink="http://www.w3.org/1999/xlink" x="0px" y="0px"
	 viewBox="0 0 512 512" style="enable-background:new 0 0 512 512;" xml:space="preserve">
<g>
	<polygon style="fill:#CFF09E;" points="249.854,13.577 178.496,137.174 321.214,137.174 	"/>
	<circle style="fill:#CFF09E;" cx="249.853" cy="427.071" r="71.359"/>
</g>
<path style="fill:#507C5C;" d="M422.182,198.985c0-7.497-6.078-13.577-13.577-13.577c-7.498,0-13.577,6.08-13.577,13.577
	c0,10.302-8.381,18.683-18.683,18.683c-10.302,0-18.683-8.381-18.683-18.683s8.381-18.684,18.683-18.684
	c7.498,0,13.577-6.08,13.577-13.577c0-7.497-6.078-13.577-13.577-13.577c-25.275,0-45.837,20.563-45.837,45.838
	c0,20.55,13.593,37.984,32.26,43.784v28.616h-99.337V150.75h57.783c4.851,0,9.333-2.588,11.757-6.788
	c2.426-4.201,2.426-9.376,0-13.577L261.612,6.788C259.187,2.588,254.705,0,249.854,0c-4.851,0-9.333,2.588-11.757,6.788
	l-71.359,123.597c-2.426,4.201-2.426,9.376,0,13.577c2.425,4.201,6.906,6.788,11.757,6.788h57.783v167.272h-88.249v-66.207h17.48
	c7.498,0,13.577-6.08,13.577-13.577v-22.524c0-7.497-6.078-13.577-13.577-13.577c-7.498,0-13.577,6.08-13.577,13.577v8.947h-34.96
	v-34.96h48.537c7.498,0,13.577-6.08,13.577-13.577c0-7.497-6.078-13.577-13.577-13.577h-62.114c-7.498,0-13.577,6.08-13.577,13.577
	v62.114c0,7.497,6.078,13.577,13.577,13.577h17.48V331.6c0,7.497,6.078,13.577,13.577,13.577h92.907
	c-35.947,9.887-62.441,42.844-62.441,81.888c0,46.833,38.102,84.935,84.936,84.935s84.936-38.1,84.936-84.935
	c0-42.212-30.958-77.317-71.359-83.837v-44.689h112.914c7.498,0,13.577-6.08,13.577-13.577V242.77
	C408.589,236.969,422.182,219.535,422.182,198.985z M249.854,40.73l47.843,82.867H202.01L249.854,40.73z M307.637,427.066
	c0,31.861-25.921,57.781-57.783,57.781s-57.783-25.921-57.783-57.781c0-31.017,24.569-56.395,55.266-57.719
	c0.816,0.153,1.656,0.243,2.517,0.243c0.861,0,1.701-0.088,2.517-0.243C283.069,370.671,307.637,396.049,307.637,427.066z"/>
<g>
</g>
<g>
</g>
<g>
</g>
<g>
</g>
<g>
</g>
<g>
</g>
<g>
</g>
<g>
</g>
<g>
</g>
<g>
</g>
<g>
</g>
<g>
</g>
<g>
</g>
<g>
</g>
<g>
</g>
</svg>
