<?xml version="1.0" encoding="iso-8859-1"?>
<!-- Generator: Adobe Illustrator 19.0.0, SVG Export Plug-In . SVG Version: 6.00 Build 0)  -->
<svg version="1.1" id="Layer_1" xmlns="http://www.w3.org/2000/svg" xmlns:xlink="http://www.w3.org/1999/xlink" x="0px" y="0px"
	 viewBox="0 0 512 512" style="enable-background:new 0 0 512 512;" xml:space="preserve">
<path style="fill:#507C5C;" d="M439.971,512H207.497c-8.519,0-15.425-6.907-15.425-15.425v-67.121
	c0-8.518,6.906-15.425,15.425-15.425h123.386c8.518,0,15.425,6.907,15.425,15.425c0,8.518-6.907,15.425-15.425,15.425H222.922
	v36.272h201.624v-36.272h-25.371c-8.518,0-15.425-6.907-15.425-15.425c0-8.518,6.907-15.425,15.425-15.425h40.796
	c8.518,0,15.425,6.907,15.425,15.425v67.121C455.396,505.093,448.489,512,439.971,512z"/>
<path style="fill:#CFF09E;" d="M427.5,193.475L427.5,193.475c-15.923,0-28.831,12.304-28.831,27.482v-6.531
	c0-15.178-12.908-27.482-28.831-27.482l0,0c-15.923,0-28.831,12.304-28.831,27.482v-12.092c0-14.902-12.156-27.594-27.78-28.123
	c-16.403-0.555-29.883,11.954-29.883,27.464v16.085l-0.31-174.853c0-15.178-12.908-27.482-28.831-27.482h-1.109
	c-15.923,0-28.831,12.304-28.831,27.482v134.266v23.779v71.867l-59.571-65.332c-8.633-9.469-22.455-12.158-34.009-6.616l0,0
	c-16.756,8.038-21.751,29.529-10.256,44.132l81.397,103.413c0,0,18.474,25.706,42.178,25.706l165.791,0.072
	c25.689,0.011,46.52-19.835,46.521-44.322l0.017-108.915C456.332,205.78,443.423,193.475,427.5,193.475z"/>
<g>
	<path style="fill:#507C5C;" d="M409.814,389.619c-0.011,0-0.018,0-0.028,0l-165.792-0.072c-29.924,0-51.209-27.367-54.474-31.823
		l-81.213-103.181c-8.388-10.657-11.441-24.347-8.37-37.56c3.07-13.211,11.845-24.154,24.075-30.021
		c17.826-8.552,38.756-4.479,52.079,10.131l32.748,35.915V42.906C208.839,19.249,228.691,0,253.095,0h1.109
		c24.402,0,44.255,19.249,44.255,42.906l0.21,117.924c4.828-1.505,9.927-2.226,15.081-2.036c14.33,0.486,26.801,7.537,34.501,18.183
		c6.391-3.475,13.754-5.459,21.587-5.459c12.941,0,24.601,5.413,32.701,14.024c7.109-4.725,15.71-7.492,24.962-7.492
		c24.402,0,44.254,19.249,44.254,42.907l-0.017,108.916c-0.002,16.102-6.54,31.201-18.414,42.514
		C441.662,383.499,426.209,389.619,409.814,389.619z M143.271,213.423c-1.994,0-4.014,0.443-5.915,1.356
		c-3.742,1.795-6.428,5.144-7.368,9.189c-0.939,4.043-0.006,8.234,2.562,11.495l81.397,103.414c0.139,0.176,0.275,0.355,0.406,0.538
		c3.895,5.328,16.892,19.283,29.653,19.283l165.797,0.072c0.006,0,0.011,0,0.015,0c8.436,0,16.332-3.096,22.232-8.717
		c5.703-5.433,8.843-12.601,8.843-20.182l0.017-108.915c0-6.647-6.013-12.055-13.404-12.055s-13.406,5.41-13.406,12.058
		c0,8.518-6.907,15.425-15.425,15.425s-15.425-6.907-15.425-15.425v-6.531c0-6.65-6.014-12.058-13.406-12.058
		s-13.406,5.41-13.406,12.058c0,8.518-6.907,15.425-15.425,15.425s-15.425-6.907-15.425-15.425v-12.093
		c0-6.767-5.777-12.466-12.878-12.707c-3.998-0.14-7.635,1.232-10.338,3.844c-2.32,2.241-3.597,5.157-3.597,8.204v16.085
		c0,8.515-6.898,15.417-15.411,15.425c-0.005,0-0.009,0-0.014,0c-8.508,0.002-15.409-6.889-15.425-15.397l-0.31-174.853
		c0-6.674-6.014-12.084-13.406-12.084h-1.109c-7.392,0-13.406,5.409-13.406,12.056v229.91c0,6.369-3.913,12.082-9.852,14.382
		c-5.94,2.298-12.682,0.716-16.97-3.99l-59.578-65.332C150.638,214.967,146.996,213.423,143.271,213.423z"/>
	<path style="fill:#507C5C;" d="M171.696,25.229h-50.393c-8.519,0-15.425,6.907-15.425,15.425s6.906,15.425,15.425,15.425h13.154
		l-12.005,12.005c-6.023,6.023-6.025,15.79,0,21.815c3.012,3.011,6.96,4.518,10.907,4.518c3.947,0,7.896-1.507,10.907-4.518
		l12.007-12.005v13.153c0,8.518,6.906,15.425,15.425,15.425c8.519,0,15.425-6.907,15.425-15.425V40.654
		C187.121,32.136,180.215,25.229,171.696,25.229z"/>
	<path style="fill:#507C5C;" d="M106.067,141.253H92.911l12.005-12.005c6.023-6.023,6.025-15.79,0-21.815
		c-6.023-6.02-15.79-6.022-21.814,0l-12.007,12.007v-13.154c0-8.518-6.906-15.425-15.425-15.425s-15.425,6.907-15.425,15.425v50.393
		c0,8.518,6.906,15.425,15.425,15.425h50.393c8.519,0,15.425-6.907,15.425-15.425C121.488,148.16,114.586,141.253,106.067,141.253z"
		/>
</g>
<g>
</g>
<g>
</g>
<g>
</g>
<g>
</g>
<g>
</g>
<g>
</g>
<g>
</g>
<g>
</g>
<g>
</g>
<g>
</g>
<g>
</g>
<g>
</g>
<g>
</g>
<g>
</g>
<g>
</g>
</svg>
