<?xml version="1.0" encoding="iso-8859-1"?>
<!-- Generator: Adobe Illustrator 19.0.0, SVG Export Plug-In . SVG Version: 6.00 Build 0)  -->
<svg version="1.1" id="Layer_1" xmlns="http://www.w3.org/2000/svg" xmlns:xlink="http://www.w3.org/1999/xlink" x="0px" y="0px"
	 viewBox="0 0 512.001 512.001" style="enable-background:new 0 0 512.001 512.001;" xml:space="preserve">
<path style="fill:#CFF09E;" d="M55.292,255.042c14.549,40.391,53.197,69.275,98.6,69.275c57.869,0,104.782-46.913,104.782-104.782
	c0-31.557-13.97-59.835-36.041-79.045c22.384-32.278,59.676-53.427,101.93-53.427c68.481,0,123.997,55.515,123.997,123.996
	c0,12.64-1.904,24.831-5.418,36.318c32.02,14.695,54.271,47.015,54.271,84.553l0,0c0,51.368-41.643,93.01-93.01,93.01H107.597
	c-51.368,0-93.01-41.641-93.01-93.009l0,0C14.587,299.962,30.727,271.78,55.292,255.042z"/>
<path style="fill:#507C5C;" d="M460.126,239.902c2.007-9.457,3.02-19.116,3.02-28.846c0-76.415-62.168-138.583-138.584-138.583
	c-45.408,0-87.993,22.319-113.918,59.703c-4.238,6.112-3.199,14.434,2.41,19.316c19.721,17.164,31.031,41.965,31.031,68.042
	c0,1.554-0.039,3.1-0.118,4.634c-2.42,47.588-41.898,85.561-90.077,85.561c-0.042,0-0.083-0.003-0.125-0.003
	c-1.339-0.001-2.668-0.041-3.992-0.101c-0.513-0.023-1.023-0.058-1.535-0.09c-0.833-0.052-1.663-0.115-2.491-0.19
	c-0.63-0.057-1.26-0.115-1.888-0.187c-0.643-0.071-1.281-0.159-1.92-0.245c-2.901-0.389-5.771-0.909-8.593-1.572
	c-0.133-0.031-0.267-0.061-0.4-0.092c-9.923-2.382-19.3-6.424-27.765-11.862c-0.165-0.106-0.33-0.21-0.494-0.317
	c-0.766-0.499-1.521-1.012-2.273-1.533c-0.357-0.249-0.712-0.503-1.065-0.757c-0.63-0.452-1.26-0.906-1.879-1.374
	c-0.909-0.69-1.807-1.392-2.688-2.114c-0.214-0.175-0.424-0.356-0.637-0.534c-0.899-0.751-1.785-1.516-2.655-2.3
	c-0.19-0.171-0.375-0.346-0.563-0.518c-0.894-0.821-1.775-1.657-2.636-2.513c-0.085-0.085-0.171-0.168-0.255-0.252
	c-8.11-8.137-14.682-17.808-19.231-28.536c-0.007-0.016-0.015-0.034-0.02-0.05c-4.564-10.781-7.091-22.629-7.091-35.054
	c0-49.734,40.461-90.195,90.195-90.195c8.055,0,14.587-6.531,14.587-14.587s-6.532-14.587-14.587-14.587
	c-65.82,0-119.369,53.548-119.369,119.369c0,10.384,1.339,20.461,3.842,30.072C14.17,269.954,0,299.99,0,331.931
	c0,59.329,48.268,107.597,107.597,107.597h296.807c59.329,0,107.597-48.268,107.597-107.597
	C512,294.155,491.99,259.241,460.126,239.902z M404.403,410.353H107.597c-43.243,0-78.424-35.181-78.424-78.424
	c0-20.002,7.627-38.988,20.97-53.349c6.207,10.877,14.05,20.589,23.123,28.888c0.252,0.232,0.503,0.462,0.759,0.691
	c1.231,1.107,2.477,2.197,3.752,3.25c0.417,0.346,0.846,0.675,1.268,1.015c0.796,0.64,1.597,1.275,2.41,1.895
	c0.702,0.537,1.408,1.066,2.121,1.589c0.433,0.317,0.874,0.623,1.311,0.934c1.743,1.24,3.518,2.435,5.329,3.581
	c0.053,0.032,0.104,0.067,0.155,0.099c10.854,6.851,22.88,11.998,35.707,15.073c0.149,0.036,0.299,0.069,0.449,0.104
	c2.006,0.473,4.03,0.893,6.074,1.262c0.597,0.108,1.192,0.22,1.791,0.321c0.894,0.147,1.793,0.286,2.693,0.413
	c1.065,0.152,2.134,0.284,3.206,0.408c0.756,0.086,1.51,0.174,2.268,0.245c1.459,0.14,2.923,0.249,4.392,0.334
	c0.532,0.031,1.066,0.058,1.6,0.082c1.746,0.079,3.495,0.131,5.254,0.133c0.029,0,0.057,0.001,0.085,0.001
	c63.764,0,116.011-50.255,119.213-113.237c0.104-2.032,0.156-4.077,0.156-6.134c0-29.878-11.21-58.483-31.142-80.361
	c20.671-23.689,50.685-37.526,82.444-37.526c60.328,0,109.41,49.081,109.41,109.409c0,10.901-1.609,21.685-4.779,32.052
	c-2.137,6.987,1.224,14.478,7.865,17.525c27.804,12.766,45.768,40.753,45.768,71.305
	C482.826,375.173,447.646,410.353,404.403,410.353z"/>
<g>
</g>
<g>
</g>
<g>
</g>
<g>
</g>
<g>
</g>
<g>
</g>
<g>
</g>
<g>
</g>
<g>
</g>
<g>
</g>
<g>
</g>
<g>
</g>
<g>
</g>
<g>
</g>
<g>
</g>
</svg>
