<?xml version="1.0" encoding="iso-8859-1"?>
<!-- Generator: Adobe Illustrator 19.0.0, SVG Export Plug-In . SVG Version: 6.00 Build 0)  -->
<svg version="1.1" id="Layer_1" xmlns="http://www.w3.org/2000/svg" xmlns:xlink="http://www.w3.org/1999/xlink" x="0px" y="0px"
	 viewBox="0 0 512 512" style="enable-background:new 0 0 512 512;" xml:space="preserve">
<path style="fill:#CFF09E;" d="M369.686,143.689V58.633H142.313v85.056H58.634V368.31h83.68v85.056h227.373V368.31h83.68V143.689
	H369.686z M368.78,368.78H143.22V143.219h225.562V368.78H368.78z"/>
<path style="fill:#507C5C;" d="M497.035,94.98c8.264,0,14.965-6.701,14.965-14.965V16.339c0-8.264-6.701-14.965-14.965-14.965
	H369.686c-8.264,0-14.965,6.701-14.965,14.965v27.329H157.278V16.339c0-8.264-6.7-14.965-14.965-14.965H14.965
	C6.7,1.375,0,8.076,0,16.339v127.349c0,8.264,6.7,14.965,14.965,14.965h28.704v194.693H14.965C6.7,353.346,0,360.048,0,368.311
	v63.674c0,8.264,6.7,14.965,14.965,14.965s14.965-6.701,14.965-14.965v-48.709h28.704h68.714v70.091v27.329H14.965
	C6.7,480.696,0,487.397,0,495.661c0,8.264,6.7,14.965,14.965,14.965h127.348c8.265,0,14.965-6.701,14.965-14.965v-27.329h197.443
	v27.329c0,8.264,6.701,14.965,14.965,14.965h127.349c8.264,0,14.965-6.701,14.965-14.965V368.311
	c0-8.264-6.701-14.965-14.965-14.965h-28.704V158.654h28.704c8.264,0,14.965-6.701,14.965-14.965s-6.701-14.965-14.965-14.965
	h-43.669h-68.716V58.633V31.304h97.42v48.711C482.07,88.278,488.77,94.98,497.035,94.98z M354.721,73.598v54.655H157.278V73.598
	H354.721z M158.184,353.816v-82.851h82.851v82.851H158.184z M255.999,241.034h-97.816v-82.851h195.633v195.634h-82.851V256
	C270.964,247.735,264.264,241.034,255.999,241.034z M29.93,31.304h97.418v27.329v70.091H58.634H29.93V31.304z M73.599,353.345
	V158.652h54.656v194.693H73.599z M157.278,438.401v-54.655h197.443v54.655H157.278z M482.07,480.694h-97.42v-27.329v-70.091h68.716
	h28.704V480.694z M438.401,158.654v194.693h-54.655V158.654H438.401L438.401,158.654z"/>
<g>
</g>
<g>
</g>
<g>
</g>
<g>
</g>
<g>
</g>
<g>
</g>
<g>
</g>
<g>
</g>
<g>
</g>
<g>
</g>
<g>
</g>
<g>
</g>
<g>
</g>
<g>
</g>
<g>
</g>
</svg>
