<?xml version="1.0" encoding="iso-8859-1"?>
<!-- Generator: Adobe Illustrator 19.0.0, SVG Export Plug-In . SVG Version: 6.00 Build 0)  -->
<svg version="1.1" id="Layer_1" xmlns="http://www.w3.org/2000/svg" xmlns:xlink="http://www.w3.org/1999/xlink" x="0px" y="0px"
	 viewBox="0 0 512 512" style="enable-background:new 0 0 512 512;" xml:space="preserve">
<rect x="20.723" y="15.51" style="fill:#CFF09E;" width="470.55" height="76.326"/>
<g>
	<path style="fill:#507C5C;" d="M491.277,107.347H20.723c-8.566,0-15.51-6.944-15.51-15.51V15.51C5.213,6.944,12.157,0,20.723,0
		h470.553c8.566,0,15.51,6.944,15.51,15.51v76.326C506.787,100.403,499.843,107.347,491.277,107.347z M36.234,76.326h439.533V31.021
		H36.234V76.326z"/>
	<path style="fill:#507C5C;" d="M491.277,242.232H20.723c-8.566,0-15.51-6.944-15.51-15.51v-76.326c0-8.566,6.944-15.51,15.51-15.51
		h470.553c8.566,0,15.51,6.944,15.51,15.51v76.326C506.787,235.288,499.843,242.232,491.277,242.232z M36.234,211.211h439.533
		v-45.305H36.234V211.211z"/>
</g>
<rect x="20.723" y="285.28" style="fill:#CFF09E;" width="470.55" height="76.326"/>
<g>
	<path style="fill:#507C5C;" d="M491.277,377.117H20.723c-8.566,0-15.51-6.944-15.51-15.51V285.28c0-8.566,6.944-15.51,15.51-15.51
		h470.553c8.566,0,15.51,6.944,15.51,15.51v76.326C506.787,370.173,499.843,377.117,491.277,377.117z M36.234,346.096h439.533
		v-45.305H36.234V346.096z"/>
	<path style="fill:#507C5C;" d="M491.277,512H20.723c-8.566,0-15.51-6.944-15.51-15.51v-76.326c0-8.566,6.944-15.51,15.51-15.51
		h315.93c8.566,0,15.51,6.944,15.51,15.51c0,8.566-6.944,15.51-15.51,15.51H36.234v45.305h439.533v-45.305H430.49
		c-8.566,0-15.51-6.944-15.51-15.51c0-8.566,6.944-15.51,15.51-15.51h60.786c8.566,0,15.51,6.944,15.51,15.51v76.326
		C506.787,505.056,499.843,512,491.277,512z"/>
</g>
<g>
</g>
<g>
</g>
<g>
</g>
<g>
</g>
<g>
</g>
<g>
</g>
<g>
</g>
<g>
</g>
<g>
</g>
<g>
</g>
<g>
</g>
<g>
</g>
<g>
</g>
<g>
</g>
<g>
</g>
</svg>
