<?xml version="1.0" encoding="iso-8859-1"?>
<!-- Generator: Adobe Illustrator 19.0.0, SVG Export Plug-In . SVG Version: 6.00 Build 0)  -->
<svg version="1.1" id="Layer_1" xmlns="http://www.w3.org/2000/svg" xmlns:xlink="http://www.w3.org/1999/xlink" x="0px" y="0px"
	 viewBox="0 0 512 512" style="enable-background:new 0 0 512 512;" xml:space="preserve">
<rect x="119.044" y="14.927" style="fill:#CFF09E;" width="104.117" height="208.233"/>
<path style="fill:#507C5C;" d="M223.16,0H119.044H14.927C6.683,0,0,6.683,0,14.927v99.265c0,8.244,6.683,14.927,14.927,14.927
	s14.927-6.683,14.927-14.927V29.854h74.262v178.379H29.854v-19.405c0-8.244-6.683-14.927-14.927-14.927S0,180.584,0,188.828v34.332
	c0,8.244,6.683,14.927,14.927,14.927h104.117H223.16c8.244,0,14.927-6.683,14.927-14.927V14.927C238.087,6.683,231.405,0,223.16,0z
	 M208.233,208.233h-74.262V29.854h74.262V208.233z"/>
<rect x="392.956" y="14.927" style="fill:#CFF09E;" width="104.117" height="208.233"/>
<path style="fill:#507C5C;" d="M497.073,0H392.956H288.84c-8.244,0-14.927,6.683-14.927,14.927v99.265
	c0,8.244,6.683,14.927,14.927,14.927s14.927-6.683,14.927-14.927V29.854h74.262v178.379h-74.262v-19.405
	c0-8.244-6.683-14.927-14.927-14.927s-14.927,6.683-14.927,14.927v34.332c0,8.244,6.683,14.927,14.927,14.927h104.117h104.117
	c8.244,0,14.927-6.683,14.927-14.927V14.927C512,6.683,505.317,0,497.073,0z M482.146,208.233h-74.262V29.854h74.262V208.233z"/>
<rect x="288.84" y="288.84" style="fill:#CFF09E;" width="104.117" height="208.233"/>
<path style="fill:#507C5C;" d="M497.073,407.883c8.244,0,14.927-6.683,14.927-14.927V288.84c0-8.244-6.683-14.927-14.927-14.927
	H392.956H288.84c-8.244,0-14.927,6.683-14.927,14.927v208.233c0,8.244,6.683,14.927,14.927,14.927h104.117h104.117
	c8.244,0,14.927-6.683,14.927-14.927v-33.586c0-8.244-6.683-14.927-14.927-14.927s-14.927,6.683-14.927,14.927v18.659h-74.262
	V303.767h74.262v89.189C482.146,401.201,488.829,407.883,497.073,407.883z M378.029,482.146h-74.262V303.767h74.262V482.146z"/>
<rect x="14.927" y="288.84" style="fill:#CFF09E;" width="104.117" height="208.233"/>
<path style="fill:#507C5C;" d="M223.16,407.883c8.244,0,14.927-6.683,14.927-14.927V288.84c0-8.244-6.683-14.927-14.927-14.927
	H119.044H14.927C6.683,273.913,0,280.595,0,288.84v208.233C0,505.317,6.683,512,14.927,512h104.117H223.16
	c8.244,0,14.927-6.683,14.927-14.927v-33.586c0-8.244-6.683-14.927-14.927-14.927c-8.244,0-14.927,6.683-14.927,14.927v18.659
	h-74.262V303.767h74.262v89.189C208.233,401.201,214.916,407.883,223.16,407.883z M104.117,482.146H29.854V303.767h74.262V482.146z"
	/>
<g>
</g>
<g>
</g>
<g>
</g>
<g>
</g>
<g>
</g>
<g>
</g>
<g>
</g>
<g>
</g>
<g>
</g>
<g>
</g>
<g>
</g>
<g>
</g>
<g>
</g>
<g>
</g>
<g>
</g>
</svg>
