<?xml version="1.0" encoding="iso-8859-1"?>
<!-- Generator: Adobe Illustrator 19.0.0, SVG Export Plug-In . SVG Version: 6.00 Build 0)  -->
<svg version="1.1" id="Layer_1" xmlns="http://www.w3.org/2000/svg" xmlns:xlink="http://www.w3.org/1999/xlink" x="0px" y="0px"
	 viewBox="0 0 512 512" style="enable-background:new 0 0 512 512;" xml:space="preserve">
<circle style="fill:#CFF09E;" cx="120.271" cy="120.914" r="54.554"/>
<g>
	<path style="fill:#507C5C;" d="M120.264,189.873c-38.023,0-68.958-30.935-68.958-68.958s30.935-68.958,68.958-68.958
		s68.958,30.935,68.958,68.958S158.288,189.873,120.264,189.873z M120.264,80.765c-22.139,0-40.15,18.012-40.15,40.15
		s18.012,40.15,40.15,40.15s40.15-18.012,40.15-40.15S142.402,80.765,120.264,80.765z"/>
	<path style="fill:#507C5C;" d="M120.264,241.179c-30.241,0-59.146-11.267-81.39-31.724c-5.855-5.384-6.237-14.496-0.851-20.351
		c5.384-5.857,14.497-6.237,20.351-0.851c16.913,15.555,38.893,24.12,61.89,24.12c50.43,0,91.458-41.028,91.458-91.458
		s-41.028-91.458-91.458-91.458c-50.429,0-91.456,41.028-91.456,91.458c0,7.955-6.449,14.404-14.404,14.404S0,128.871,0,120.916
		C0,54.601,53.951,0.65,120.264,0.65s120.265,53.951,120.265,120.265S186.578,241.179,120.264,241.179z"/>
</g>
<circle style="fill:#CFF09E;" cx="391.738" cy="120.914" r="54.554"/>
<g>
	<path style="fill:#507C5C;" d="M391.735,189.873c-38.023,0-68.958-30.935-68.958-68.958s30.935-68.958,68.958-68.958
		s68.958,30.935,68.958,68.958S429.759,189.873,391.735,189.873z M391.735,80.765c-22.138,0-40.15,18.012-40.15,40.15
		s18.012,40.15,40.15,40.15s40.15-18.012,40.15-40.15S413.873,80.765,391.735,80.765z"/>
	<path style="fill:#507C5C;" d="M391.735,241.179c-30.242,0-59.146-11.267-81.39-31.724c-5.855-5.386-6.235-14.497-0.851-20.352
		c5.384-5.852,14.497-6.237,20.352-0.851c16.911,15.555,38.89,24.12,61.888,24.12c50.43,0,91.458-41.028,91.458-91.458
		s-41.028-91.458-91.458-91.458s-91.456,41.028-91.456,91.458c0,7.955-6.45,14.404-14.404,14.404s-14.404-6.449-14.404-14.404
		c0-66.315,53.951-120.265,120.264-120.265C458.049,0.649,512,54.599,512,120.914S458.049,241.179,391.735,241.179z"/>
</g>
<circle style="fill:#CFF09E;" cx="120.271" cy="391.09" r="54.554"/>
<g>
	<path style="fill:#507C5C;" d="M120.264,460.045c-38.023,0-68.958-30.935-68.958-68.958s30.935-68.958,68.958-68.958
		s68.958,30.935,68.958,68.958C189.222,429.11,158.288,460.045,120.264,460.045z M120.264,350.937
		c-22.139,0-40.15,18.012-40.15,40.15c0,22.139,18.012,40.15,40.15,40.15s40.15-18.012,40.15-40.15
		C160.414,368.949,142.402,350.937,120.264,350.937z"/>
	<path style="fill:#507C5C;" d="M120.264,511.351c-30.241,0-59.146-11.267-81.39-31.724c-5.855-5.384-6.237-14.496-0.851-20.351
		c5.384-5.857,14.497-6.237,20.351-0.851c16.913,15.555,38.893,24.12,61.89,24.12c50.43,0,91.458-41.028,91.458-91.458
		s-41.028-91.458-91.458-91.458c-50.429,0-91.456,41.028-91.456,91.458c0,7.955-6.449,14.404-14.404,14.404S0,399.043,0,391.087
		c0-66.315,53.951-120.265,120.264-120.265s120.265,53.951,120.265,120.265S186.578,511.351,120.264,511.351z"/>
</g>
<circle style="fill:#CFF09E;" cx="391.738" cy="391.09" r="54.554"/>
<g>
	<path style="fill:#507C5C;" d="M391.735,460.045c-38.023,0-68.958-30.935-68.958-68.958s30.935-68.958,68.958-68.958
		s68.958,30.935,68.958,68.958C460.693,429.11,429.759,460.045,391.735,460.045z M391.735,350.937
		c-22.138,0-40.15,18.012-40.15,40.15c0,22.139,18.012,40.15,40.15,40.15s40.15-18.012,40.15-40.15
		C431.885,368.949,413.873,350.937,391.735,350.937z"/>
	<path style="fill:#507C5C;" d="M391.735,511.351c-30.242,0-59.146-11.267-81.39-31.724c-5.855-5.386-6.235-14.497-0.851-20.352
		c5.384-5.852,14.497-6.237,20.352-0.851c16.911,15.555,38.89,24.12,61.888,24.12c50.43,0,91.458-41.028,91.458-91.458
		s-41.028-91.458-91.458-91.458s-91.456,41.027-91.456,91.458c0,7.955-6.45,14.404-14.404,14.404s-14.404-6.449-14.404-14.404
		c0-66.315,53.951-120.265,120.264-120.265c66.315,0,120.265,53.951,120.265,120.265S458.049,511.351,391.735,511.351z"/>
</g>
<g>
</g>
<g>
</g>
<g>
</g>
<g>
</g>
<g>
</g>
<g>
</g>
<g>
</g>
<g>
</g>
<g>
</g>
<g>
</g>
<g>
</g>
<g>
</g>
<g>
</g>
<g>
</g>
<g>
</g>
</svg>
