<?xml version="1.0" encoding="iso-8859-1"?>
<!-- Generator: Adobe Illustrator 19.0.0, SVG Export Plug-In . SVG Version: 6.00 Build 0)  -->
<svg version="1.1" id="Layer_1" xmlns="http://www.w3.org/2000/svg" xmlns:xlink="http://www.w3.org/1999/xlink" x="0px" y="0px"
	 viewBox="0 0 512 512" style="enable-background:new 0 0 512 512;" xml:space="preserve">
<g>
	<path style="fill:#CFF09E;" d="M118.106,14.46v206.923c57.14,0,103.462-46.321,103.462-103.462S175.247,14.46,118.106,14.46z"/>
	<path style="fill:#CFF09E;" d="M393.894,14.46v206.923c57.14,0,103.462-46.321,103.462-103.462S451.034,14.46,393.894,14.46z"/>
	<path style="fill:#CFF09E;" d="M393.894,497.54V290.617c-57.14,0-103.462,46.321-103.462,103.462S336.754,497.54,393.894,497.54z"
		/>
	<path style="fill:#CFF09E;" d="M118.106,497.54V290.617c-57.14,0-103.462,46.321-103.462,103.462
		C14.645,451.219,60.966,497.54,118.106,497.54z"/>
</g>
<g>
	<path style="fill:#507C5C;" d="M118.106,0C53.084,0,0.185,52.899,0.185,117.921c0,7.986,6.474,14.46,14.46,14.46
		s14.46-6.474,14.46-14.46c0-44.151,32.322-80.879,74.542-87.809v175.651c-14.571-2.36-28.231-8.295-40.099-17.518
		c-6.306-4.902-15.391-3.762-20.29,2.545c-4.9,6.306-3.761,15.391,2.545,20.29c20.846,16.201,45.849,24.762,72.304,24.762
		c65.022,0,117.921-52.899,117.921-117.921S183.128,0,118.106,0z M206.997,122.281c-0.023,0.474-0.067,0.944-0.097,1.417
		c-0.062,0.967-0.127,1.933-0.22,2.89c-0.053,0.558-0.126,1.11-0.191,1.667c-0.101,0.866-0.204,1.731-0.33,2.59
		c-0.085,0.581-0.184,1.158-0.279,1.737c-0.137,0.826-0.282,1.648-0.441,2.465c-0.114,0.583-0.236,1.161-0.361,1.739
		c-0.175,0.807-0.36,1.609-0.557,2.408c-0.14,0.57-0.283,1.138-0.435,1.703c-0.214,0.803-0.444,1.599-0.681,2.392
		c-0.162,0.545-0.322,1.092-0.496,1.632c-0.262,0.821-0.544,1.634-0.829,2.444c-0.175,0.496-0.343,0.996-0.525,1.489
		c-0.334,0.898-0.693,1.784-1.054,2.669c-0.16,0.392-0.309,0.789-0.476,1.178c-1.083,2.542-2.282,5.022-3.587,7.437
		c-0.2,0.369-0.414,0.727-0.617,1.093c-0.464,0.83-0.931,1.656-1.421,2.468c-0.263,0.437-0.539,0.865-0.81,1.297
		c-0.455,0.729-0.915,1.455-1.391,2.169c-0.301,0.45-0.61,0.894-0.918,1.338c-0.471,0.681-0.95,1.356-1.44,2.023
		c-0.327,0.445-0.661,0.885-0.995,1.325c-0.497,0.651-1.003,1.296-1.52,1.932c-0.347,0.428-0.694,0.855-1.048,1.277
		c-0.534,0.635-1.079,1.259-1.628,1.88c-0.356,0.401-0.709,0.803-1.071,1.196c-0.587,0.638-1.187,1.259-1.793,1.88
		c-0.346,0.354-0.685,0.714-1.037,1.061c-0.691,0.685-1.401,1.352-2.114,2.016c-0.282,0.263-0.557,0.534-0.843,0.792
		c-2.023,1.832-4.131,3.573-6.317,5.216c-0.328,0.246-0.667,0.479-0.998,0.722c-0.768,0.561-1.539,1.118-2.325,1.654
		c-0.419,0.286-0.847,0.56-1.272,0.839c-0.717,0.471-1.436,0.94-2.166,1.39c-0.464,0.286-0.934,0.562-1.404,0.84
		c-0.71,0.421-1.424,0.834-2.147,1.236c-0.492,0.273-0.986,0.539-1.482,0.803c-0.72,0.382-1.447,0.755-2.179,1.118
		c-0.508,0.252-1.015,0.5-1.528,0.743c-0.746,0.351-1.499,0.69-2.256,1.021c-0.51,0.224-1.018,0.45-1.533,0.664
		c-0.792,0.33-1.593,0.639-2.397,0.947c-0.49,0.188-0.977,0.382-1.472,0.561c-0.895,0.324-1.803,0.623-2.711,0.92
		c-0.415,0.134-0.823,0.282-1.241,0.411c-1.329,0.411-2.669,0.795-4.023,1.145c-0.107,0.027-0.217,0.049-0.325,0.077
		c-1.246,0.317-2.503,0.609-3.771,0.872c-0.473,0.098-0.953,0.176-1.427,0.267c-0.748,0.143-1.498,0.279-2.253,0.403V30.112
		c0.755,0.124,1.505,0.26,2.253,0.403c0.476,0.091,0.954,0.169,1.427,0.268c1.267,0.263,2.523,0.555,3.771,0.872
		c0.107,0.027,0.218,0.048,0.325,0.077c1.355,0.35,2.695,0.735,4.023,1.145c0.418,0.129,0.829,0.276,1.244,0.412
		c0.907,0.295,1.812,0.594,2.707,0.918c0.497,0.181,0.988,0.376,1.481,0.564c0.801,0.307,1.599,0.615,2.389,0.943
		c0.518,0.215,1.028,0.442,1.54,0.667c0.755,0.331,1.505,0.667,2.248,1.018c0.515,0.243,1.025,0.493,1.534,0.746
		c0.729,0.361,1.452,0.732,2.169,1.112c0.5,0.266,0.999,0.534,1.494,0.808c0.719,0.399,1.429,0.811,2.134,1.229
		c0.473,0.281,0.947,0.558,1.416,0.847c0.727,0.448,1.442,0.914,2.154,1.382c0.428,0.282,0.859,0.557,1.281,0.844
		c0.779,0.532,1.543,1.084,2.305,1.64c0.338,0.247,0.685,0.486,1.019,0.737c2.182,1.641,4.287,3.379,6.309,5.208
		c0.296,0.268,0.58,0.548,0.872,0.82c0.703,0.655,1.404,1.311,2.085,1.988c0.356,0.353,0.701,0.717,1.051,1.077
		c0.6,0.615,1.196,1.232,1.777,1.864c0.366,0.398,0.723,0.804,1.082,1.207c0.547,0.616,1.087,1.236,1.618,1.867
		c0.357,0.425,0.709,0.856,1.058,1.288c0.512,0.633,1.015,1.272,1.508,1.919c0.338,0.442,0.674,0.888,1.005,1.336
		c0.486,0.661,0.96,1.332,1.429,2.007c0.312,0.45,0.625,0.898,0.93,1.353c0.471,0.707,0.927,1.426,1.378,2.147
		c0.275,0.438,0.555,0.872,0.821,1.316c0.484,0.804,0.947,1.622,1.407,2.444c0.21,0.373,0.428,0.74,0.632,1.116
		c1.306,2.412,2.503,4.892,3.585,7.431c0.168,0.395,0.32,0.797,0.481,1.194c0.36,0.879,0.716,1.76,1.047,2.652
		c0.185,0.496,0.353,0.999,0.529,1.499c0.283,0.807,0.564,1.617,0.826,2.434c0.174,0.544,0.334,1.092,0.497,1.64
		c0.236,0.791,0.464,1.585,0.678,2.384c0.152,0.567,0.295,1.138,0.437,1.709c0.197,0.797,0.382,1.598,0.555,2.403
		c0.126,0.58,0.247,1.16,0.361,1.742c0.159,0.817,0.304,1.638,0.441,2.462c0.097,0.578,0.195,1.157,0.279,1.739
		c0.126,0.857,0.228,1.722,0.33,2.587c0.065,0.557,0.137,1.109,0.191,1.669c0.093,0.957,0.158,1.923,0.22,2.889
		c0.03,0.473,0.074,0.943,0.097,1.418c0.069,1.445,0.111,2.898,0.111,4.36C207.108,119.383,207.068,120.836,206.997,122.281z"/>
	<path style="fill:#507C5C;" d="M290.432,132.381c7.986,0,14.46-6.474,14.46-14.46c0-44.151,32.322-80.879,74.542-87.809v175.651
		c-14.572-2.36-28.231-8.295-40.099-17.518c-6.306-4.902-15.391-3.762-20.29,2.545c-4.9,6.306-3.761,15.391,2.545,20.29
		c20.846,16.201,45.849,24.762,72.305,24.762c65.022,0,117.921-52.899,117.921-117.921C511.815,52.899,458.916,0,393.894,0
		S275.972,52.899,275.972,117.921C275.972,125.907,282.446,132.381,290.432,132.381z M482.784,122.281
		c-0.023,0.474-0.066,0.944-0.097,1.417c-0.062,0.967-0.127,1.933-0.22,2.89c-0.053,0.558-0.126,1.11-0.191,1.667
		c-0.101,0.866-0.204,1.731-0.33,2.59c-0.085,0.581-0.184,1.158-0.279,1.737c-0.137,0.826-0.282,1.648-0.441,2.465
		c-0.114,0.583-0.236,1.161-0.361,1.739c-0.175,0.807-0.36,1.609-0.557,2.408c-0.14,0.57-0.283,1.138-0.435,1.703
		c-0.215,0.803-0.445,1.601-0.681,2.395c-0.162,0.544-0.322,1.089-0.495,1.628c-0.262,0.821-0.544,1.634-0.829,2.445
		c-0.175,0.497-0.343,0.999-0.526,1.492c-0.333,0.894-0.69,1.776-1.05,2.656c-0.162,0.396-0.312,0.798-0.48,1.191
		c-1.083,2.539-2.28,5.019-3.585,7.432c-0.202,0.375-0.421,0.739-0.628,1.11c-0.461,0.824-0.925,1.646-1.411,2.452
		c-0.265,0.44-0.544,0.87-0.816,1.306c-0.454,0.724-0.911,1.446-1.384,2.157c-0.302,0.454-0.616,0.901-0.927,1.349
		c-0.468,0.675-0.943,1.348-1.43,2.01c-0.33,0.448-0.667,0.894-1.004,1.336c-0.495,0.648-0.998,1.288-1.511,1.922
		c-0.348,0.431-0.7,0.862-1.056,1.285c-0.531,0.632-1.071,1.252-1.619,1.868c-0.359,0.403-0.714,0.81-1.08,1.206
		c-0.583,0.633-1.18,1.251-1.78,1.867c-0.35,0.359-0.694,0.723-1.05,1.076c-0.685,0.68-1.388,1.34-2.095,1.998
		c-0.288,0.268-0.568,0.545-0.86,0.808c-2.021,1.831-4.128,3.57-6.312,5.211c-0.334,0.252-0.678,0.489-1.017,0.735
		c-0.762,0.557-1.525,1.109-2.305,1.641c-0.424,0.289-0.856,0.565-1.285,0.847c-0.711,0.468-1.427,0.933-2.153,1.381
		c-0.467,0.288-0.941,0.567-1.414,0.847c-0.707,0.418-1.417,0.83-2.137,1.231c-0.495,0.275-0.992,0.542-1.492,0.807
		c-0.717,0.38-1.44,0.752-2.169,1.113c-0.509,0.253-1.021,0.503-1.536,0.746c-0.743,0.351-1.495,0.688-2.25,1.019
		c-0.512,0.224-1.021,0.451-1.537,0.665c-0.791,0.328-1.591,0.638-2.392,0.944c-0.493,0.188-0.982,0.383-1.478,0.564
		c-0.894,0.324-1.799,0.622-2.704,0.917c-0.416,0.136-0.827,0.283-1.246,0.412c-1.329,0.411-2.668,0.795-4.023,1.145
		c-0.11,0.029-0.223,0.051-0.333,0.078c-1.245,0.317-2.499,0.607-3.764,0.87c-0.473,0.098-0.953,0.176-1.429,0.268
		c-0.748,0.143-1.498,0.279-2.251,0.403V30.112c0.755,0.124,1.504,0.26,2.251,0.403c0.476,0.091,0.956,0.169,1.429,0.268
		c1.265,0.263,2.519,0.554,3.764,0.87c0.11,0.027,0.223,0.049,0.333,0.078c1.353,0.35,2.694,0.735,4.023,1.145
		c0.419,0.13,0.831,0.278,1.249,0.414c0.905,0.295,1.807,0.593,2.7,0.915c0.499,0.181,0.99,0.377,1.486,0.567
		c0.798,0.305,1.595,0.613,2.383,0.941c0.519,0.215,1.031,0.442,1.544,0.668c0.752,0.33,1.501,0.665,2.243,1.015
		c0.518,0.244,1.03,0.496,1.541,0.749c0.726,0.36,1.446,0.729,2.16,1.108c0.503,0.268,1.005,0.536,1.502,0.813
		c0.714,0.396,1.421,0.807,2.124,1.222c0.477,0.282,0.954,0.562,1.426,0.853c0.722,0.445,1.433,0.908,2.141,1.374
		c0.432,0.283,0.868,0.562,1.296,0.853c0.772,0.528,1.53,1.076,2.285,1.627c0.346,0.252,0.697,0.495,1.038,0.75
		c2.181,1.64,4.284,3.376,6.303,5.204c0.302,0.273,0.591,0.56,0.889,0.836c0.697,0.648,1.391,1.3,2.066,1.971
		c0.36,0.357,0.71,0.727,1.064,1.09c0.596,0.61,1.187,1.223,1.766,1.851c0.369,0.401,0.729,0.811,1.092,1.219
		c0.544,0.612,1.082,1.229,1.608,1.855c0.36,0.428,0.714,0.862,1.066,1.297c0.509,0.629,1.009,1.265,1.499,1.907
		c0.341,0.447,0.68,0.895,1.014,1.348c0.483,0.656,0.954,1.323,1.418,1.994c0.315,0.454,0.63,0.907,0.937,1.365
		c0.469,0.703,0.921,1.418,1.371,2.136c0.276,0.441,0.56,0.879,0.829,1.326c0.482,0.8,0.941,1.612,1.397,2.428
		c0.213,0.379,0.435,0.752,0.642,1.134c1.304,2.41,2.5,4.887,3.582,7.425c0.169,0.399,0.322,0.805,0.487,1.207
		c0.357,0.875,0.713,1.751,1.043,2.64c0.185,0.497,0.354,1.002,0.531,1.502c0.283,0.807,0.564,1.617,0.826,2.435
		c0.173,0.542,0.334,1.089,0.496,1.635c0.236,0.791,0.466,1.586,0.68,2.387c0.152,0.567,0.295,1.138,0.437,1.709
		c0.197,0.797,0.382,1.598,0.555,2.403c0.126,0.58,0.247,1.16,0.361,1.742c0.159,0.817,0.304,1.638,0.441,2.462
		c0.097,0.578,0.195,1.157,0.279,1.739c0.126,0.857,0.228,1.722,0.33,2.587c0.065,0.557,0.137,1.109,0.191,1.669
		c0.093,0.957,0.158,1.923,0.22,2.889c0.03,0.473,0.074,0.943,0.097,1.418c0.069,1.445,0.111,2.898,0.111,4.36
		C482.896,119.383,482.855,120.836,482.784,122.281z"/>
	<path style="fill:#507C5C;" d="M497.355,379.619c-7.986,0-14.46,6.474-14.46,14.46c0,44.151-32.322,80.879-74.542,87.809V306.236
		c14.571,2.36,28.231,8.296,40.099,17.518c6.304,4.9,15.388,3.761,20.29-2.545c4.9-6.306,3.761-15.391-2.545-20.29
		c-20.846-16.201-45.849-24.762-72.304-24.762c-65.022,0-117.921,52.899-117.921,117.921S328.872,512,393.894,512
		s117.921-52.899,117.921-117.921C511.815,386.093,505.341,379.619,497.355,379.619z M305.002,389.719
		c0.023-0.474,0.067-0.944,0.097-1.417c0.062-0.967,0.127-1.933,0.22-2.89c0.053-0.558,0.126-1.111,0.191-1.667
		c0.101-0.866,0.204-1.731,0.33-2.59c0.085-0.581,0.184-1.158,0.279-1.737c0.137-0.826,0.282-1.648,0.441-2.465
		c0.114-0.583,0.236-1.161,0.361-1.74c0.175-0.807,0.36-1.609,0.557-2.408c0.14-0.57,0.283-1.138,0.435-1.703
		c0.214-0.802,0.444-1.599,0.681-2.392c0.162-0.545,0.322-1.092,0.496-1.633c0.262-0.821,0.544-1.634,0.829-2.444
		c0.175-0.496,0.343-0.996,0.525-1.489c0.334-0.898,0.693-1.784,1.054-2.669c0.16-0.392,0.309-0.789,0.476-1.178
		c1.083-2.542,2.282-5.022,3.587-7.437c0.2-0.369,0.414-0.727,0.617-1.093c0.464-0.83,0.931-1.656,1.421-2.468
		c0.263-0.437,0.539-0.865,0.81-1.297c0.456-0.729,0.915-1.455,1.391-2.169c0.301-0.45,0.61-0.894,0.918-1.337
		c0.471-0.681,0.95-1.356,1.44-2.023c0.327-0.445,0.661-0.885,0.995-1.324c0.497-0.651,1.004-1.296,1.52-1.932
		c0.347-0.428,0.694-0.855,1.048-1.277c0.534-0.635,1.079-1.259,1.628-1.88c0.356-0.401,0.709-0.803,1.071-1.196
		c0.587-0.638,1.187-1.259,1.793-1.88c0.346-0.354,0.685-0.714,1.037-1.061c0.691-0.685,1.401-1.352,2.114-2.016
		c0.282-0.263,0.557-0.534,0.843-0.792c2.023-1.832,4.131-3.573,6.317-5.216c0.328-0.246,0.667-0.479,0.998-0.722
		c0.768-0.561,1.539-1.118,2.325-1.654c0.419-0.286,0.847-0.56,1.272-0.839c0.717-0.471,1.436-0.94,2.166-1.39
		c0.464-0.286,0.934-0.562,1.404-0.84c0.71-0.421,1.424-0.834,2.147-1.236c0.492-0.273,0.986-0.539,1.482-0.802
		c0.72-0.382,1.447-0.755,2.179-1.118c0.508-0.252,1.015-0.5,1.528-0.743c0.746-0.351,1.499-0.69,2.256-1.021
		c0.51-0.224,1.018-0.45,1.533-0.664c0.792-0.33,1.593-0.639,2.397-0.947c0.49-0.188,0.977-0.382,1.472-0.561
		c0.895-0.324,1.803-0.623,2.711-0.92c0.415-0.134,0.823-0.282,1.241-0.411c1.329-0.411,2.669-0.795,4.023-1.145
		c0.107-0.027,0.217-0.049,0.325-0.077c1.246-0.317,2.503-0.609,3.771-0.872c0.473-0.098,0.953-0.176,1.427-0.267
		c0.748-0.143,1.498-0.279,2.253-0.403v175.618c-0.755-0.124-1.505-0.26-2.253-0.403c-0.476-0.091-0.954-0.169-1.427-0.267
		c-1.267-0.263-2.523-0.555-3.771-0.872c-0.107-0.027-0.218-0.048-0.325-0.077c-1.355-0.35-2.695-0.735-4.023-1.145
		c-0.418-0.129-0.829-0.276-1.244-0.412c-0.907-0.295-1.812-0.594-2.707-0.918c-0.497-0.181-0.988-0.376-1.481-0.564
		c-0.801-0.307-1.599-0.615-2.389-0.943c-0.518-0.215-1.028-0.442-1.54-0.667c-0.755-0.331-1.505-0.667-2.248-1.018
		c-0.515-0.243-1.025-0.493-1.534-0.746c-0.729-0.362-1.452-0.732-2.169-1.112c-0.5-0.266-0.999-0.534-1.494-0.808
		c-0.719-0.399-1.429-0.811-2.134-1.229c-0.473-0.281-0.947-0.558-1.416-0.847c-0.727-0.448-1.442-0.914-2.155-1.382
		c-0.428-0.282-0.859-0.557-1.281-0.844c-0.779-0.532-1.543-1.084-2.305-1.64c-0.338-0.247-0.685-0.486-1.019-0.737
		c-2.182-1.641-4.287-3.379-6.309-5.208c-0.296-0.268-0.58-0.548-0.872-0.82c-0.703-0.655-1.404-1.311-2.085-1.988
		c-0.356-0.353-0.701-0.717-1.051-1.077c-0.6-0.615-1.196-1.232-1.777-1.864c-0.366-0.398-0.723-0.804-1.082-1.207
		c-0.547-0.616-1.087-1.236-1.618-1.867c-0.357-0.425-0.709-0.856-1.058-1.288c-0.512-0.633-1.015-1.272-1.508-1.919
		c-0.338-0.442-0.674-0.888-1.005-1.336c-0.486-0.661-0.96-1.332-1.429-2.007c-0.312-0.45-0.625-0.898-0.93-1.353
		c-0.471-0.707-0.927-1.426-1.378-2.147c-0.275-0.438-0.555-0.872-0.821-1.316c-0.484-0.804-0.947-1.622-1.407-2.444
		c-0.21-0.373-0.428-0.74-0.632-1.116c-1.306-2.412-2.503-4.892-3.585-7.431c-0.168-0.395-0.32-0.797-0.481-1.194
		c-0.36-0.879-0.716-1.76-1.047-2.652c-0.185-0.496-0.353-0.999-0.529-1.499c-0.283-0.807-0.564-1.617-0.826-2.434
		c-0.173-0.544-0.334-1.092-0.497-1.64c-0.236-0.791-0.464-1.585-0.678-2.384c-0.152-0.567-0.295-1.138-0.437-1.709
		c-0.197-0.797-0.382-1.598-0.555-2.403c-0.126-0.58-0.247-1.16-0.361-1.742c-0.159-0.817-0.304-1.638-0.441-2.462
		c-0.097-0.578-0.195-1.157-0.279-1.74c-0.126-0.857-0.228-1.722-0.33-2.587c-0.065-0.557-0.137-1.109-0.191-1.669
		c-0.093-0.957-0.158-1.923-0.22-2.889c-0.03-0.473-0.074-0.943-0.097-1.418c-0.069-1.445-0.111-2.898-0.111-4.36
		C304.892,392.617,304.932,391.164,305.002,389.719z"/>
	<path style="fill:#507C5C;" d="M221.568,379.619c-7.986,0-14.46,6.474-14.46,14.46c0,44.151-32.322,80.879-74.542,87.809V306.236
		c14.572,2.36,28.231,8.296,40.099,17.518c6.304,4.9,15.388,3.761,20.29-2.545c4.9-6.306,3.761-15.391-2.545-20.29
		c-20.846-16.201-45.849-24.762-72.305-24.762c-65.022,0-117.921,52.899-117.921,117.921S53.083,512,118.105,512
		s117.921-52.899,117.921-117.921C236.028,386.093,229.554,379.619,221.568,379.619z M29.214,389.719
		c0.023-0.474,0.067-0.944,0.097-1.417c0.062-0.967,0.127-1.933,0.22-2.89c0.054-0.558,0.126-1.111,0.191-1.667
		c0.101-0.866,0.204-1.731,0.33-2.59c0.085-0.581,0.184-1.158,0.279-1.737c0.137-0.826,0.282-1.648,0.441-2.465
		c0.114-0.583,0.236-1.161,0.361-1.74c0.175-0.807,0.36-1.609,0.557-2.408c0.14-0.57,0.283-1.138,0.435-1.703
		c0.215-0.802,0.445-1.601,0.681-2.395c0.162-0.544,0.322-1.089,0.495-1.628c0.262-0.821,0.544-1.634,0.829-2.445
		c0.175-0.497,0.343-0.999,0.526-1.492c0.333-0.894,0.69-1.776,1.05-2.656c0.162-0.396,0.312-0.798,0.48-1.191
		c1.083-2.539,2.28-5.019,3.585-7.432c0.202-0.375,0.421-0.739,0.628-1.111c0.461-0.824,0.925-1.646,1.411-2.452
		c0.265-0.44,0.544-0.87,0.816-1.306c0.454-0.724,0.911-1.446,1.384-2.157c0.302-0.454,0.616-0.901,0.927-1.349
		c0.468-0.675,0.943-1.348,1.43-2.01c0.33-0.448,0.667-0.894,1.004-1.336c0.495-0.648,0.998-1.288,1.511-1.922
		c0.348-0.431,0.7-0.862,1.056-1.285c0.531-0.632,1.071-1.252,1.619-1.868c0.359-0.403,0.714-0.81,1.08-1.206
		c0.583-0.633,1.18-1.251,1.78-1.867c0.35-0.359,0.694-0.723,1.05-1.076c0.685-0.68,1.388-1.34,2.095-1.998
		c0.288-0.267,0.568-0.545,0.86-0.808c2.021-1.831,4.128-3.57,6.312-5.211c0.334-0.252,0.678-0.489,1.017-0.735
		c0.762-0.557,1.525-1.109,2.305-1.641c0.424-0.289,0.856-0.565,1.285-0.847c0.711-0.468,1.427-0.933,2.153-1.381
		c0.467-0.288,0.941-0.567,1.414-0.847c0.707-0.418,1.417-0.83,2.137-1.231c0.495-0.275,0.992-0.542,1.492-0.807
		c0.717-0.38,1.44-0.752,2.169-1.113c0.509-0.253,1.021-0.503,1.536-0.746c0.743-0.351,1.495-0.688,2.25-1.019
		c0.512-0.224,1.021-0.451,1.537-0.665c0.791-0.328,1.591-0.638,2.392-0.944c0.493-0.188,0.982-0.383,1.478-0.564
		c0.894-0.324,1.799-0.622,2.704-0.917c0.416-0.136,0.827-0.283,1.246-0.412c1.329-0.411,2.668-0.795,4.023-1.145
		c0.11-0.029,0.223-0.051,0.333-0.078c1.245-0.317,2.499-0.607,3.764-0.87c0.473-0.098,0.953-0.176,1.429-0.268
		c0.748-0.143,1.498-0.279,2.251-0.403v175.618c-0.755-0.124-1.504-0.26-2.251-0.403c-0.476-0.091-0.956-0.169-1.429-0.267
		c-1.265-0.263-2.519-0.554-3.764-0.87c-0.11-0.027-0.223-0.049-0.333-0.078c-1.353-0.35-2.694-0.735-4.023-1.145
		c-0.419-0.13-0.831-0.278-1.249-0.414c-0.905-0.295-1.807-0.593-2.7-0.915c-0.499-0.181-0.99-0.377-1.486-0.567
		c-0.798-0.305-1.595-0.613-2.383-0.941c-0.519-0.215-1.031-0.442-1.544-0.668c-0.752-0.33-1.501-0.665-2.243-1.015
		c-0.518-0.244-1.03-0.496-1.541-0.749c-0.726-0.36-1.446-0.729-2.16-1.108c-0.503-0.267-1.005-0.536-1.502-0.813
		c-0.714-0.396-1.421-0.807-2.124-1.222c-0.477-0.282-0.954-0.563-1.426-0.853c-0.722-0.445-1.433-0.908-2.141-1.374
		c-0.432-0.283-0.868-0.562-1.296-0.853c-0.772-0.528-1.53-1.076-2.285-1.627c-0.346-0.252-0.697-0.495-1.038-0.75
		c-2.181-1.64-4.284-3.376-6.303-5.204c-0.302-0.273-0.591-0.56-0.889-0.836c-0.697-0.648-1.391-1.3-2.066-1.971
		c-0.36-0.357-0.71-0.727-1.064-1.09c-0.596-0.61-1.187-1.223-1.766-1.851c-0.369-0.401-0.729-0.811-1.092-1.219
		c-0.544-0.612-1.082-1.229-1.608-1.855c-0.36-0.428-0.714-0.862-1.066-1.297c-0.509-0.629-1.009-1.265-1.499-1.907
		c-0.341-0.447-0.68-0.895-1.014-1.348c-0.483-0.656-0.954-1.323-1.418-1.994c-0.315-0.454-0.63-0.907-0.937-1.365
		c-0.468-0.703-0.921-1.418-1.371-2.136c-0.276-0.441-0.56-0.879-0.829-1.326c-0.482-0.8-0.941-1.612-1.397-2.428
		c-0.213-0.379-0.435-0.752-0.642-1.134c-1.304-2.41-2.5-4.887-3.582-7.425c-0.169-0.399-0.322-0.805-0.487-1.207
		c-0.357-0.875-0.713-1.751-1.043-2.64c-0.185-0.497-0.354-1.002-0.531-1.502c-0.283-0.807-0.564-1.617-0.826-2.435
		c-0.174-0.542-0.334-1.089-0.496-1.635c-0.236-0.791-0.466-1.586-0.68-2.387c-0.152-0.567-0.295-1.138-0.437-1.709
		c-0.197-0.797-0.382-1.598-0.555-2.403c-0.126-0.58-0.247-1.16-0.361-1.742c-0.159-0.817-0.304-1.638-0.441-2.462
		c-0.097-0.578-0.195-1.157-0.279-1.74c-0.126-0.857-0.228-1.722-0.33-2.587c-0.065-0.557-0.137-1.109-0.191-1.669
		c-0.093-0.957-0.158-1.923-0.22-2.889c-0.03-0.473-0.074-0.943-0.097-1.418c-0.069-1.445-0.111-2.898-0.111-4.36
		C29.104,392.617,29.145,391.164,29.214,389.719z"/>
</g>
<g>
</g>
<g>
</g>
<g>
</g>
<g>
</g>
<g>
</g>
<g>
</g>
<g>
</g>
<g>
</g>
<g>
</g>
<g>
</g>
<g>
</g>
<g>
</g>
<g>
</g>
<g>
</g>
<g>
</g>
</svg>
