<?xml version="1.0" encoding="iso-8859-1"?>
<!-- Generator: Adobe Illustrator 19.0.0, SVG Export Plug-In . SVG Version: 6.00 Build 0)  -->
<svg version="1.1" id="Layer_1" xmlns="http://www.w3.org/2000/svg" xmlns:xlink="http://www.w3.org/1999/xlink" x="0px" y="0px"
	 viewBox="0 0 512 512" style="enable-background:new 0 0 512 512;" xml:space="preserve">
<path style="fill:#CFF09E;" d="M15.942,15.941v480.116h480.116V15.941H15.942z M256.002,105.964h150.037v300.072H105.965V105.964
	h43.51"/>
<g>
	<path style="fill:#507C5C;" d="M105.965,421.978h300.072c8.803,0,15.941-7.139,15.941-15.941V105.964
		c0-8.803-7.139-15.941-15.941-15.941H256.002c-8.804,0-15.941,7.139-15.941,15.941v68.789
		c-35.452,7.381-62.171,38.863-62.171,76.472c0,43.072,35.041,78.113,78.113,78.113s78.113-35.041,78.113-78.113
		c0-17.242-5.509-33.593-15.933-47.284c-5.334-7.008-15.336-8.361-22.34-3.026c-7.006,5.334-8.36,15.336-3.026,22.34
		c6.16,8.092,9.417,17.765,9.417,27.971c0,25.49-20.74,46.23-46.23,46.23c-25.492,0-46.23-20.74-46.23-46.23
		s20.738-46.23,46.23-46.23c8.803,0,15.941-7.139,15.941-15.941v-67.15h118.153v268.19h-268.19v-268.19h27.569
		c8.804,0,15.941-7.139,15.941-15.941s-7.137-15.941-15.941-15.941h-43.51c-8.804,0-15.941,7.139-15.941,15.941v300.072
		C90.023,414.841,97.16,421.978,105.965,421.978z"/>
	<path style="fill:#507C5C;" d="M496.059,0H15.942C7.138,0,0.001,7.139,0.001,15.941v480.117c0,8.803,7.137,15.941,15.941,15.941
		h480.116c8.803,0,15.941-7.139,15.941-15.941V15.941C512.001,7.139,504.862,0,496.059,0z M480.118,480.117H31.884V31.883h448.233
		v448.235H480.118z"/>
</g>
<g>
</g>
<g>
</g>
<g>
</g>
<g>
</g>
<g>
</g>
<g>
</g>
<g>
</g>
<g>
</g>
<g>
</g>
<g>
</g>
<g>
</g>
<g>
</g>
<g>
</g>
<g>
</g>
<g>
</g>
</svg>
