<?xml version="1.0" encoding="iso-8859-1"?>
<!-- Generator: Adobe Illustrator 19.0.0, SVG Export Plug-In . SVG Version: 6.00 Build 0)  -->
<svg version="1.1" id="Layer_1" xmlns="http://www.w3.org/2000/svg" xmlns:xlink="http://www.w3.org/1999/xlink" x="0px" y="0px"
	 viewBox="0 0 512.003 512.003" style="enable-background:new 0 0 512.003 512.003;" xml:space="preserve">
<g>
	<circle style="fill:#CFF09E;" cx="255.997" cy="324.392" r="34.345"/>
	<path style="fill:#CFF09E;" d="M256.001,290.054c14.318,0,26.585,8.764,31.741,21.219c12.341-48.453,20.293-118.628,20.293-175.978
		c0-98.176-23.297-121.554-52.035-121.554s-52.035,23.378-52.035,121.554c0,57.35,7.952,127.525,20.293,175.978
		C229.415,298.817,241.681,290.054,256.001,290.054z"/>
</g>
<path style="fill:#507C5C;" d="M298.543,346.773c3.532-6.688,5.543-14.3,5.543-22.375c0-4.79-0.713-9.414-2.022-13.782
	c12.011-49.162,19.712-117.379,19.712-175.321C321.775,77.215,314.956,0,256.001,0s-65.774,77.215-65.774,135.295
	c0,57.941,7.701,126.158,19.712,175.321c-1.309,4.369-2.022,8.993-2.022,13.782c0,8.075,2.01,15.686,5.543,22.375
	c-19.256,13.668-31.362,36.186-31.362,60.369c0,31.413,21.986,45.953,38.041,56.571l0.25,0.165c2.333,1.543,4.964,2.281,7.568,2.281
	c4.456,0,8.829-2.165,11.473-6.161c4.186-6.328,2.448-14.854-3.88-19.039l-0.251-0.165c-16.426-10.864-25.719-17.782-25.719-33.651
	c0-16.773,9.274-32.27,23.631-40.416c6.787,3.67,14.552,5.757,22.794,5.757c8.242,0,16.007-2.087,22.794-5.757
	c14.357,8.146,23.631,23.643,23.631,40.416c0,31.776-33.747,74.287-43.528,78c-7.222,2.255-11.265,9.927-9.037,17.161
	c1.819,5.905,7.254,9.699,13.127,9.699c1.34,0,2.703-0.199,4.049-0.613c22.534-6.943,62.868-62.15,62.868-104.245
	C329.905,382.959,317.799,360.441,298.543,346.773z M256.001,27.479c9.472,0,38.295,0,38.295,107.816
	c0,47.106-5.536,103.078-14.251,147.43c-2.336-1.346-4.799-2.477-7.345-3.416c-0.089-0.033-0.177-0.067-0.267-0.1
	c-0.6-0.217-1.205-0.422-1.816-0.616c-0.299-0.095-0.6-0.184-0.903-0.275c-0.526-0.157-1.051-0.313-1.584-0.451
	c-0.698-0.181-1.403-0.345-2.113-0.496c-0.414-0.087-0.83-0.165-1.248-0.242c-0.64-0.118-1.285-0.229-1.935-0.322
	c-0.344-0.049-0.69-0.091-1.036-0.132c-0.655-0.08-1.315-0.144-1.978-0.196c-0.305-0.025-0.61-0.052-0.916-0.07
	c-0.962-0.058-1.929-0.096-2.906-0.096c-0.977,0-1.944,0.038-2.906,0.096c-0.306,0.018-0.611,0.045-0.916,0.07
	c-0.664,0.052-1.323,0.117-1.979,0.196c-0.346,0.041-0.692,0.084-1.036,0.132c-0.65,0.092-1.293,0.203-1.935,0.322
	c-0.418,0.077-0.834,0.154-1.248,0.242c-0.71,0.151-1.415,0.315-2.113,0.496c-0.533,0.137-1.058,0.294-1.584,0.451
	c-0.301,0.089-0.603,0.179-0.903,0.275c-0.61,0.194-1.216,0.398-1.816,0.616c-0.089,0.033-0.177,0.067-0.267,0.1
	c-2.546,0.94-5.009,2.069-7.345,3.416c-8.715-44.35-14.251-100.324-14.251-147.43C217.706,27.479,246.529,27.479,256.001,27.479z
	 M235.395,324.397c0-2.825,0.573-5.518,1.606-7.972c0.027-0.066,0.06-0.129,0.089-0.195c0.224-0.517,0.467-1.024,0.731-1.517
	c0.052-0.096,0.106-0.192,0.158-0.287c0.289-0.519,0.594-1.029,0.925-1.52c0.007-0.01,0.012-0.021,0.019-0.03
	c2.212-3.267,5.338-5.867,9.005-7.435c0.034-0.014,0.069-0.029,0.103-0.044c1.176-0.495,2.409-0.879,3.684-1.15
	c0.135-0.029,0.271-0.051,0.405-0.076c0.482-0.092,0.97-0.166,1.463-0.224c0.172-0.021,0.343-0.043,0.517-0.058
	c0.627-0.058,1.257-0.096,1.897-0.096c0.64,0,1.272,0.038,1.897,0.096c0.173,0.016,0.345,0.038,0.517,0.058
	c0.493,0.058,0.981,0.132,1.463,0.224c0.135,0.026,0.272,0.048,0.405,0.076c1.274,0.271,2.507,0.655,3.684,1.15
	c0.034,0.015,0.069,0.03,0.104,0.045c3.667,1.568,6.791,4.167,9.004,7.433c0.007,0.01,0.012,0.021,0.019,0.03
	c0.331,0.49,0.636,1.002,0.925,1.52c0.052,0.096,0.107,0.191,0.158,0.287c0.264,0.493,0.507,0.999,0.73,1.514
	c0.029,0.067,0.063,0.132,0.091,0.201c1.033,2.454,1.606,5.147,1.606,7.97c0,11.363-9.244,20.605-20.605,20.605
	S235.395,335.76,235.395,324.397z"/>
<g>
</g>
<g>
</g>
<g>
</g>
<g>
</g>
<g>
</g>
<g>
</g>
<g>
</g>
<g>
</g>
<g>
</g>
<g>
</g>
<g>
</g>
<g>
</g>
<g>
</g>
<g>
</g>
<g>
</g>
</svg>
