<?xml version="1.0" encoding="iso-8859-1"?>
<!-- Generator: Adobe Illustrator 19.0.0, SVG Export Plug-In . SVG Version: 6.00 Build 0)  -->
<svg version="1.1" id="Layer_1" xmlns="http://www.w3.org/2000/svg" xmlns:xlink="http://www.w3.org/1999/xlink" x="0px" y="0px"
	 viewBox="0 0 512.002 512.002" style="enable-background:new 0 0 512.002 512.002;" xml:space="preserve">
<polygon style="fill:#CFF09E;" points="302.599,324 187.752,438.847 187.752,496.499 496.749,496.499 496.749,324 "/>
<path style="fill:#507C5C;" d="M496.747,308.747H302.599c-4.045,0-7.924,1.608-10.785,4.468L176.967,428.062
	c-2.86,2.861-4.468,6.74-4.468,10.785v42.399H30.506V30.755h141.993v307.538c0,8.423,6.829,15.253,15.253,15.253
	s15.253-6.83,15.253-15.253v-137.08L356.168,48.052l100.403,100.403L353.265,251.76c-5.956,5.956-5.956,15.614,0,21.572
	c2.979,2.977,6.882,4.468,10.785,4.468c3.903,0,7.806-1.49,10.785-4.468l114.091-114.091c5.956-5.956,5.956-15.614,0-21.572
	L366.952,15.695c-5.958-5.955-15.613-5.955-21.572,0L203.002,158.072V15.502c0-8.423-6.829-15.253-15.253-15.253H15.253
	C6.829,0.249,0,7.08,0,15.502v480.997c0,8.423,6.829,15.253,15.253,15.253h172.499h308.996c8.423,0,15.253-6.83,15.253-15.253V324
	C512,315.577,505.171,308.747,496.747,308.747z M481.494,481.246H203.005v-36.079l105.914-105.914h172.577v141.993H481.494z"/>
<rect x="64.566" y="80.425" style="fill:#CFF09E;" width="72.706" height="72.706"/>
<path style="fill:#507C5C;" d="M137.277,168.385H64.57c-8.424,0-15.253-6.83-15.253-15.253V80.425
	c0-8.423,6.829-15.253,15.253-15.253h72.706c8.424,0,15.253,6.83,15.253,15.253v72.706
	C152.53,161.554,145.701,168.385,137.277,168.385z M79.823,137.879h42.2v-42.2h-42.2V137.879z"/>
<rect x="64.566" y="358.873" style="fill:#CFF09E;" width="72.706" height="72.706"/>
<path style="fill:#507C5C;" d="M137.277,446.829H64.57c-8.424,0-15.253-6.83-15.253-15.253v-72.705
	c0-8.423,6.829-15.253,15.253-15.253h72.706c8.424,0,15.253,6.83,15.253,15.253v72.705
	C152.53,439.999,145.701,446.829,137.277,446.829z M79.823,416.323h42.2v-42.199h-42.2V416.323z"/>
<rect x="64.566" y="219.644" style="fill:#CFF09E;" width="72.706" height="72.706"/>
<path style="fill:#507C5C;" d="M137.277,307.606H64.57c-8.424,0-15.253-6.83-15.253-15.253v-72.706
	c0-8.423,6.829-15.253,15.253-15.253h72.706c8.424,0,15.253,6.83,15.253,15.253v72.706
	C152.53,300.777,145.701,307.606,137.277,307.606z M79.823,277.1h42.2v-42.2h-42.2V277.1z"/>
<g>
</g>
<g>
</g>
<g>
</g>
<g>
</g>
<g>
</g>
<g>
</g>
<g>
</g>
<g>
</g>
<g>
</g>
<g>
</g>
<g>
</g>
<g>
</g>
<g>
</g>
<g>
</g>
<g>
</g>
</svg>
