<?xml version="1.0" encoding="iso-8859-1"?>
<!-- Generator: Adobe Illustrator 19.0.0, SVG Export Plug-In . SVG Version: 6.00 Build 0)  -->
<svg version="1.1" id="Layer_1" xmlns="http://www.w3.org/2000/svg" xmlns:xlink="http://www.w3.org/1999/xlink" x="0px" y="0px"
	 viewBox="0 0 512 512" style="enable-background:new 0 0 512 512;" xml:space="preserve">
<path style="fill:#507C5C;" d="M496.946,423.441h-71.829c-8.313,0-15.054-6.741-15.054-15.054v-43.659
	c0-8.313,6.741-15.054,15.054-15.054c8.313,0,15.054,6.741,15.054,15.054v28.605h41.722V174.657h-41.722v116.989
	c0,8.313-6.741,15.054-15.054,15.054c-8.313,0-15.054-6.741-15.054-15.054V159.603c0-8.313,6.741-15.054,15.054-15.054h71.829
	c8.313,0,15.054,6.741,15.054,15.054v248.784C512,416.7,505.26,423.441,496.946,423.441z"/>
<path style="fill:#CFF09E;" d="M198.013,302.48h-15.951c-15.948,0-29.53-13.01-30.096-29.728
	c-0.595-17.553,12.793-31.979,29.391-31.979h17.213L44.464,240.44c-16.243,0-29.411-13.813-29.411-30.854V208.4
	c0-17.039,13.168-30.854,29.411-30.854h110.671h25.447h76.908l-73.097-30.02c-15.769-5.281-24.465-22.984-19.431-39.527
	c5.043-16.543,21.909-25.667,37.684-20.384l135.745,65.918c16.765,8.141,27.5,25.756,27.509,45.137l0.077,177.423
	c0.012,27.491-21.226,49.783-47.432,49.786l-116.556,0.018c-16.243,0-29.411-13.813-29.411-30.854l0,0
	c0-17.039,13.168-30.854,29.411-30.854h-6.989c-16.243,0-29.411-13.813-29.411-30.854l0,0c0-17.039,13.168-30.854,29.411-30.854"/>
<path style="fill:#507C5C;" d="M201.997,440.95c-24.521,0-44.467-20.595-44.467-45.908c0-10.053,3.146-19.362,8.475-26.933
	c-9.466-8.426-15.466-20.89-15.466-34.776c0-8.597,2.3-16.651,6.3-23.537c-11.631-7.914-19.397-21.197-19.916-36.537
	c-0.205-6.028,0.757-11.996,2.75-17.562l-95.24-0.206C19.946,255.493,0,234.901,0,209.586V208.4
	c0-25.313,19.946-45.908,44.464-45.908h136.749l-2.121-0.87c-23.07-8.046-35.854-33.939-28.532-58.005
	c3.703-12.148,11.816-21.967,22.846-27.651c10.633-5.48,22.713-6.411,34.022-2.625c0.614,0.206,1.215,0.45,1.796,0.733
	l135.745,65.918c21.851,10.61,35.976,33.639,35.988,58.671l0.077,177.423c0.008,17.181-6.399,33.373-18.039,45.591
	c-11.826,12.415-27.612,19.254-44.443,19.255L201.997,440.95z M217.047,364.187c0,8.313-6.741,15.054-15.054,15.054
	c-7.917,0-14.357,7.087-14.357,15.799c0,8.712,6.44,15.8,14.357,15.8l116.551-0.02c8.516-0.002,16.559-3.523,22.65-9.916
	c6.279-6.589,9.735-15.4,9.731-24.81l-0.077-177.421c-0.006-13.585-7.477-25.99-19.033-31.601l-134.711-65.415
	c-3.312-0.903-6.803-0.531-9.905,1.069c-3.742,1.928-6.526,5.361-7.837,9.662c-2.675,8.793,1.725,18.155,9.812,20.862
	c0.318,0.105,0.631,0.221,0.939,0.349l73.098,30.02c6.652,2.731,10.443,9.785,9.05,16.841c-1.392,7.054-7.578,12.138-14.769,12.138
	H44.464c-7.917,0-14.357,7.089-14.357,15.8v1.186c0,8.712,6.44,15.799,14.357,15.799l154.138,0.333
	c8.308,0.018,15.03,6.762,15.022,15.07c-0.008,8.308-6.746,15.037-15.054,15.037h-17.213c-3.661,0-7.149,1.525-9.824,4.293
	c-3.072,3.178-4.679,7.485-4.522,12.124c0.283,8.373,7.036,15.185,15.049,15.183h15.954c8.313,0,15.054,6.741,15.054,15.054
	s-6.741,15.054-15.054,15.054h-3.011c-7.917,0-14.357,7.089-14.357,15.8s6.44,15.801,14.357,15.801h6.991
	C210.306,349.134,217.047,355.875,217.047,364.187z"/>
<g>
</g>
<g>
</g>
<g>
</g>
<g>
</g>
<g>
</g>
<g>
</g>
<g>
</g>
<g>
</g>
<g>
</g>
<g>
</g>
<g>
</g>
<g>
</g>
<g>
</g>
<g>
</g>
<g>
</g>
</svg>
