<?xml version="1.0" encoding="iso-8859-1"?>
<!-- Generator: Adobe Illustrator 19.0.0, SVG Export Plug-In . SVG Version: 6.00 Build 0)  -->
<svg version="1.1" id="Layer_1" xmlns="http://www.w3.org/2000/svg" xmlns:xlink="http://www.w3.org/1999/xlink" x="0px" y="0px"
	 viewBox="0 0 512.002 512.002" style="enable-background:new 0 0 512.002 512.002;" xml:space="preserve">
<path style="fill:#507C5C;" d="M256.001,182.98c-8.461,0-15.319-6.86-15.319-15.319V84.94c0-8.459,6.858-15.319,15.319-15.319
	c8.461,0,15.319,6.86,15.319,15.319v82.721C271.32,176.122,264.461,182.98,256.001,182.98z"/>
<path style="fill:#CFF09E;" d="M317.276,99.104v68.559c0,0.306-0.018,0.61-0.023,0.918c28.167,19.466,46.633,51.967,46.633,88.798
	c0,59.584-48.302,107.885-107.885,107.885s-107.885-48.302-107.885-107.885c0-36.831,18.467-69.333,46.633-88.798
	c-0.005-0.306-0.023-0.61-0.023-0.918V99.104C131.297,123.677,86.317,185.27,86.317,257.377c0,93.714,75.97,169.684,169.684,169.684
	s169.684-75.97,169.684-169.684C425.685,185.27,380.705,123.677,317.276,99.104z"/>
<g>
	<path style="fill:#507C5C;" d="M256.001,442.38c-102.011,0-185.003-82.992-185.003-185.003c0-38.059,11.471-74.619,33.174-105.728
		c21.198-30.385,50.598-53.495,85.021-66.831c4.712-1.823,10.022-1.209,14.191,1.647c4.17,2.855,6.662,7.584,6.662,12.638
		l0.021,69.251c0.075,5.11-2.404,9.922-6.607,12.826c-25.061,17.321-40.025,45.805-40.025,76.195
		c0,51.041,41.525,92.567,92.567,92.567s92.567-41.525,92.567-92.567c0-30.391-14.963-58.876-40.025-76.195
		c-4.203-2.904-6.682-7.716-6.607-12.826l0.018-0.705l0.003-68.547c0-5.054,2.492-9.783,6.662-12.638
		c4.17-2.857,9.478-3.474,14.191-1.647c34.423,13.336,63.822,36.446,85.021,66.831c21.702,31.109,33.174,67.669,33.174,105.728
		C441.004,359.388,358.011,442.38,256.001,442.38z M179.407,123.355c-47.291,27.203-77.772,78.533-77.772,134.022
		c0,85.117,69.248,154.366,154.365,154.366s154.366-69.247,154.366-154.365c0-55.491-30.481-106.819-77.772-134.022v37.542
		c29.328,23.306,46.61,58.789,46.61,96.481c0,67.936-55.27,123.204-123.204,123.204s-123.204-55.268-123.204-123.204
		c0-37.692,17.283-73.176,46.61-96.481L179.407,123.355L179.407,123.355z"/>
	<path style="fill:#507C5C;" d="M256.001,512.001C114.842,512.001,0,397.161,0,256C0,114.842,114.842,0.001,256.001,0.001
		c48.069,0,94.924,13.404,135.497,38.761c39.45,24.656,71.474,59.555,92.609,100.923c3.85,7.535,0.862,16.762-6.673,20.611
		c-7.535,3.851-16.76,0.862-20.611-6.671C418.069,77.763,341.118,30.638,256.001,30.638C131.735,30.638,30.637,131.736,30.637,256
		c0,124.266,101.098,225.363,225.363,225.363S481.364,380.266,481.364,256c0-8.459,6.858-15.319,15.319-15.319
		c8.461,0,15.319,6.86,15.319,15.319C512,397.161,397.16,512.001,256.001,512.001z"/>
</g>
<g>
</g>
<g>
</g>
<g>
</g>
<g>
</g>
<g>
</g>
<g>
</g>
<g>
</g>
<g>
</g>
<g>
</g>
<g>
</g>
<g>
</g>
<g>
</g>
<g>
</g>
<g>
</g>
<g>
</g>
</svg>
