<?xml version="1.0" encoding="iso-8859-1"?>
<!-- Generator: Adobe Illustrator 19.0.0, SVG Export Plug-In . SVG Version: 6.00 Build 0)  -->
<svg version="1.1" id="Layer_1" xmlns="http://www.w3.org/2000/svg" xmlns:xlink="http://www.w3.org/1999/xlink" x="0px" y="0px"
	 viewBox="0 0 511.999 511.999" style="enable-background:new 0 0 511.999 511.999;" xml:space="preserve">
<path style="fill:#CFF09E;" d="M121.339,246.303v251.957h269.324V246.303c0-45.766-37.101-82.867-82.867-82.867H204.204
	C158.438,163.436,121.339,200.537,121.339,246.303z M296.02,290.124c14.376,22.956,27.111,47.849,27.111,63.997
	c0,37.076-30.056,67.132-67.132,67.132s-67.132-30.056-67.132-67.132s67.132-120.246,67.132-120.246"/>
<g>
	<path style="fill:#507C5C;" d="M330.66,152.453v-47.644c0-7.588-6.152-13.741-13.741-13.741h-16.26V27.859
		c0-7.588-6.152-13.741-13.741-13.741h-61.835c-7.589,0-13.741,6.153-13.741,13.741v18.7c0,7.588,6.152,13.741,13.741,13.741
		s13.741-6.153,13.741-13.741V41.6h34.353v49.468h-78.096c-7.589,0-13.741,6.153-13.741,13.741v47.643
		c-42.266,10.3-73.744,48.458-73.744,93.85v251.957c0,7.588,6.152,13.741,13.741,13.741h269.324c7.589,0,13.741-6.153,13.741-13.741
		V246.303C404.404,200.911,372.927,162.752,330.66,152.453z M208.822,118.55h94.355v31.145h-94.355V118.55z M376.922,484.518H135.08
		V246.303c0-38.115,31.009-69.126,69.126-69.126h103.592c38.116,0,69.126,31.009,69.126,69.126v238.216H376.922z"/>
	<path style="fill:#507C5C;" d="M288.726,278.477c-6.432,4.029-8.381,12.508-4.352,18.939
		c21.766,34.757,25.017,50.446,25.017,56.705c0,29.44-23.951,53.389-53.391,53.389s-53.391-23.951-53.391-53.389
		c0-23.445,39.308-80.906,64.084-111.617c4.764-5.907,3.841-14.557-2.065-19.323c-5.905-4.767-14.554-3.843-19.321,2.061
		c-7.184,8.9-70.181,88.125-70.181,128.878c0,44.592,36.279,80.871,80.873,80.871s80.873-36.279,80.873-80.871
		c0-16.59-9.554-39.909-29.207-71.291C303.638,276.397,295.159,274.447,288.726,278.477z"/>
	<path style="fill:#507C5C;" d="M321.558,42.442c-0.212,0.271-0.422,0.543-0.614,0.83c-0.049,0.074-0.091,0.153-0.139,0.228
		c-0.195,0.304-0.385,0.61-0.555,0.929c-0.027,0.052-0.049,0.106-0.076,0.158c-0.18,0.345-0.35,0.697-0.5,1.059
		c-0.015,0.034-0.025,0.071-0.04,0.107c-0.154,0.378-0.294,0.763-0.414,1.156c-0.012,0.041-0.021,0.084-0.032,0.125
		c-0.113,0.385-0.216,0.775-0.295,1.173c-0.022,0.109-0.032,0.22-0.051,0.33c-0.058,0.331-0.115,0.664-0.15,1.003
		c-0.045,0.453-0.069,0.911-0.069,1.371s0.023,0.918,0.069,1.371c0.033,0.339,0.092,0.672,0.15,1.003
		c0.019,0.11,0.029,0.221,0.051,0.33c0.078,0.394,0.18,0.779,0.291,1.161c0.014,0.045,0.022,0.093,0.036,0.139
		c0.118,0.389,0.258,0.77,0.409,1.145c0.015,0.038,0.027,0.08,0.044,0.118c0.148,0.356,0.316,0.701,0.492,1.04
		c0.03,0.058,0.054,0.118,0.085,0.176c0.166,0.309,0.35,0.606,0.54,0.901c0.054,0.084,0.099,0.172,0.155,0.256
		c0.179,0.265,0.374,0.517,0.569,0.77c0.08,0.103,0.151,0.212,0.235,0.313c0.225,0.275,0.469,0.535,0.715,0.79
		c0.063,0.066,0.12,0.139,0.184,0.203l37.171,37.172c2.684,2.682,6.2,4.025,9.716,4.025c3.516,0,7.034-1.342,9.716-4.025
		c5.366-5.366,5.367-14.067,0-19.434l-13.714-13.714h18.296c7.589,0,13.741-6.153,13.741-13.741s-6.152-13.741-13.741-13.741
		h-18.296l13.713-13.715c5.366-5.366,5.367-14.067,0-19.434c-5.366-5.363-14.067-5.363-19.433,0l-37.171,37.171
		c-0.004,0.004-0.007,0.008-0.011,0.011c-0.313,0.313-0.61,0.643-0.892,0.985C321.68,42.272,321.622,42.36,321.558,42.442z"/>
</g>
<g>
</g>
<g>
</g>
<g>
</g>
<g>
</g>
<g>
</g>
<g>
</g>
<g>
</g>
<g>
</g>
<g>
</g>
<g>
</g>
<g>
</g>
<g>
</g>
<g>
</g>
<g>
</g>
<g>
</g>
</svg>
